<?xml version="1.0" encoding="UTF-8"?>
<svg width="24px" height="24px" viewBox="0 0 24 24" version="1.1" xmlns="http://www.w3.org/2000/svg" xmlns:xlink="http://www.w3.org/1999/xlink">
    <title>全部指令</title>
    <g id="页面-1" stroke="none" stroke-width="1" fill="none" fill-rule="evenodd">
        <g id="svg" transform="translate(-398.000000, -21.000000)">
            <g id="全部指令" transform="translate(398.000000, 21.000000)">
                <rect id="Rectangle-21" x="0" y="0" width="24" height="24"></rect>
                <path d="M20,5.4 C20.5522847,5.4 21,5.84771525 21,6.4 L21,20 C21,20.5522847 20.5522847,21 20,21 L6.4,21 C5.84771525,21 5.4,20.5522847 5.4,20 L5.4,6.4 C5.4,5.84771525 5.84771525,5.4 6.4,5.4 L20,5.4 Z M18.6172831,3 C19.0495657,3 19.4,3.35043431 19.4,3.78271693 C19.4,4.21499956 19.0495657,4.56543387 18.6172831,4.56543387 L6.54244599,4.56543387 C5.43787649,4.56543387 4.54244599,5.46086437 4.54244599,6.56543387 L4.54244599,19.4 L4,19.4 C3.44771525,19.4 3,18.9522847 3,18.4 L3,4 C3,3.44771525 3.44771525,3 4,3 L18.6172831,3 Z M13.1511634,10.3366213 C13.0398257,10.4236612 12.9586538,10.5447706 12.9180175,10.6816934 L12.8953027,10.7870653 L12.2066784,15.8190673 C12.1554486,16.1930663 12.4045113,16.5395822 12.7629757,16.5930322 C13.0888524,16.6416231 13.3929592,16.4312831 13.484048,16.1116469 L13.5047928,16.0126268 L14.193417,10.9806249 C14.2442196,10.6068911 13.9954765,10.2607793 13.6373818,10.2069334 C13.4652376,10.1811701 13.2903355,10.2278213 13.1511634,10.3366213 Z M11.1685563,10.6 C11.0011008,10.6 10.840521,10.6726306 10.7222226,10.8018779 L8.78491196,12.913995 C8.6665165,13.0430731 8.6,13.218161 8.6,13.400729 C8.6,13.583297 8.6665165,13.7583849 8.78491196,13.887463 L10.7217177,15.9984789 C10.9691199,16.2671737 11.3679928,16.2671737 11.615395,15.9984789 C11.8617874,15.7303347 11.8617874,15.2931551 11.6148901,15.0239097 L10.1254279,13.3996278 L11.6148901,11.7753459 C11.7332856,11.6462678 11.7998021,11.4711799 11.7998021,11.2886119 C11.7998021,11.1060438 11.7332856,10.930956 11.6148901,10.8018779 C11.4965917,10.6726306 11.3360119,10.6 11.1685563,10.6 Z M15.1920352,10.8017008 C14.9707638,11.0414896 14.9461525,11.4147837 15.1198891,11.6842508 L15.1851498,11.7699021 L16.6850269,13.3971365 L15.186166,15.0221659 C14.9627668,15.2646974 14.9404269,15.642694 15.1191462,15.9123185 L15.186166,15.9978451 C15.3047896,16.127273 15.4664668,16.2 15.6350621,16.2 C15.7699384,16.2 15.9003871,16.1534547 16.0081669,16.0685695 L16.0844664,15.9978451 L17.9999598,13.9202548 C18.1280382,13.7814051 18.2,13.593022 18.2,13.3965852 C18.2,13.2394358 18.1539445,13.0874408 18.0699461,12.9618376 L17.9999598,12.8729156 L16.0844664,10.7953254 C15.8353965,10.5324292 15.4378924,10.5352689 15.1920352,10.8017008 Z" id="形状结合" fill="#FF801A" fill-rule="nonzero"></path>
            </g>
        </g>
    </g>
</svg>