<?xml version="1.0" encoding="UTF-8"?>
<svg width="24px" height="24px" viewBox="0 0 24 24" version="1.1" xmlns="http://www.w3.org/2000/svg" xmlns:xlink="http://www.w3.org/1999/xlink">
    <title>托管户流水</title>
    <g id="页面-1" stroke="none" stroke-width="1" fill="none" fill-rule="evenodd">
        <g id="svg" transform="translate(-182.000000, -21.000000)">
            <g id="托管户流水" transform="translate(182.000000, 21.000000)">
                <rect id="Rectangle-21" x="0" y="0" width="24" height="24"></rect>
                <path d="M20,4 C20.5522847,4 21,4.44771525 21,5 L21,10.48 L18.479,10.479 L18.48,18.84 C18.48,19.3922847 18.0322847,19.84 17.48,19.84 L6.52,19.84 C5.96771525,19.84 5.52,19.3922847 5.52,18.84 L5.519,10.479 L3,10.48 L3,5 C3,4.44771525 3.44771525,4 4,4 L20,4 Z M10.8888189,10.48 L9.59905512,10.48 L10.8987402,13.2288047 L9.48,13.2288047 L9.48,14.0317201 L11.1368504,14.0317201 L11.3451969,14.456793 L11.3451969,14.7968513 L9.48,14.7968513 L9.48,15.5997668 L11.3451969,15.5997668 L11.3451969,16.96 L12.5853543,16.96 L12.5853543,15.5997668 L14.4406299,15.5997668 L14.4406299,14.7968513 L12.5853543,14.7968513 L12.5853543,14.456793 L12.7937008,14.0317201 L14.4406299,14.0317201 L14.4406299,13.2288047 L13.2302362,13.2288047 L14.52,10.48 L13.26,10.48 L12.0496063,13.3138192 L10.8888189,10.48 Z M19.06,6.16 L4.94,6.16 C4.69454011,6.16 4.49039163,6.33687516 4.44805567,6.57012437 L4.44,6.66 L4.44,7.82 C4.44,8.06545989 4.61687516,8.26960837 4.85012437,8.31194433 L4.94,8.32 L5.519,8.319 L5.52,7.6 L18.48,7.6 L18.479,8.319 L19.06,8.32 C19.3054599,8.32 19.5096084,8.14312484 19.5519443,7.90987563 L19.56,7.82 L19.56,6.66 C19.56,6.38385763 19.3361424,6.16 19.06,6.16 Z" id="形状结合" fill="#ED6755" fill-rule="nonzero"></path>
            </g>
        </g>
    </g>
</svg>