<?xml version="1.0" encoding="UTF-8"?>
<svg width="24px" height="24px" viewBox="0 0 24 24" version="1.1" xmlns="http://www.w3.org/2000/svg" xmlns:xlink="http://www.w3.org/1999/xlink">
    <title>更多</title>
    <g id="页面-1" stroke="none" stroke-width="1" fill="none" fill-rule="evenodd">
        <g id="svg" transform="translate(-74.000000, -21.000000)" fill="#333333">
            <g id="更多" transform="translate(74.000000, 21.000000)">
                <path d="M5.04375,10.5 C5.87217712,10.5 6.54375,11.1715729 6.54375,12 C6.54375,12.8284271 5.87217712,13.5 5.04375,13.5 C4.21532288,13.5 3.54375,12.8284271 3.54375,12 C3.54375,11.1715729 4.21532288,10.5 5.04375,10.5 Z M12,10.5 C12.8284271,10.5 13.5,11.1715729 13.5,12 C13.5,12.8284271 12.8284271,13.5 12,13.5 C11.1715729,13.5 10.5,12.8284271 10.5,12 C10.5,11.1715729 11.1715729,10.5 12,10.5 Z M18.95625,10.5 C19.7846771,10.5 20.45625,11.1715729 20.45625,12 C20.45625,12.8284271 19.7846771,13.5 18.95625,13.5 C18.1278229,13.5 17.45625,12.8284271 17.45625,12 C17.45625,11.1715729 18.1278229,10.5 18.95625,10.5 Z" id="形状结合"></path>
            </g>
        </g>
    </g>
</svg>