<?xml version="1.0" encoding="UTF-8"?>
<svg width="24px" height="24px" viewBox="0 0 24 24" version="1.1" xmlns="http://www.w3.org/2000/svg" xmlns:xlink="http://www.w3.org/1999/xlink">
    <title>指令签发</title>
    <g id="页面-1" stroke="none" stroke-width="1" fill="none" fill-rule="evenodd">
        <g id="svg" transform="translate(-128.000000, -75.000000)">
            <g id="指令签发" transform="translate(128.000000, 75.000000)">
                <rect id="Rectangle-21备份" x="0" y="0" width="24" height="24"></rect>
                <path d="M17.358375,14.1878274 L17.358375,14.1889617 L18.748875,15.590885 L19.349625,16.1954361 L15.02175,20.56 L13.0305,20.56 L13.0305,18.5523913 L17.358375,14.1878274 Z M17.59575,4.10668292 C17.839413,3.96484235 18.1395227,3.96441329 18.3835836,4.10555657 C18.6276446,4.24669985 18.7787945,4.50809749 18.780375,4.7917652 L18.780375,4.7917652 L18.780375,11.066393 L18.14925,11.703837 L17.358375,12.5000751 L16.5135,13.3439512 L12.185625,17.7073809 L11.838,18.0578617 L11.838,20.2242643 L11.688375,20.311601 C11.200125,20.5951615 10.597125,20.5951615 10.108875,20.311601 L10.108875,20.311601 L3.78975,16.5924208 C3.3015,16.3088603 3,15.7837062 3,15.2154508 L3,15.2154508 L3,4.7917652 C3.00463605,4.51294416 3.15360954,4.25688658 3.39272881,4.11673783 C3.63184807,3.97658907 3.92626297,3.97277495 4.16887499,4.10668292 L4.16887499,4.10668292 L10.882875,8.08787297 Z M5.327625,12.7938438 C5.21281681,12.7405551 5.07900565,12.7498163 4.97249699,12.8184225 C4.86598833,12.8870287 4.80141588,13.0055539 4.801125,13.1329822 C4.80118009,13.490294 5.00523042,13.81566 5.32537499,13.9689187 L5.32537499,13.9689187 L8.5395,15.5058168 C8.65856298,15.5626652 8.79777311,15.5566582 8.91158314,15.4897614 C9.02539318,15.4228646 9.09916063,15.3036847 9.10875001,15.1712154 C9.13475703,14.8190022 8.94162134,14.4873869 8.62387499,14.3386816 L8.62387499,14.3386816 Z M19.0085,12.5241999 L21,14.5303686 L20.004375,15.5421126 L18.796125,14.3239365 L18.01425,13.5265642 L18.796125,12.7382659 L19.0085,12.5241999 Z M5.327625,9.39111725 C5.21281681,9.33782856 5.07900566,9.34708975 4.972497,9.41569597 C4.86598834,9.48430219 4.80141589,9.60282732 4.801125,9.73025565 C4.80118009,10.0875674 5.00523041,10.4129334 5.32537499,10.5661922 L5.32537499,10.5661922 L8.5395,12.1030903 C8.65856298,12.1599386 8.7977731,12.1539317 8.91158314,12.0870349 C9.02539317,12.0201381 9.09916062,11.9009582 9.10875001,11.7684889 C9.13475704,11.4162756 8.94162135,11.0846603 8.62387499,10.9359551 L8.62387499,10.9359551 Z" id="形状结合" fill="#FF801A" fill-rule="nonzero"></path>
            </g>
        </g>
    </g>
</svg>