<?xml version="1.0" encoding="UTF-8"?>
<svg width="24px" height="24px" viewBox="0 0 24 24" version="1.1" xmlns="http://www.w3.org/2000/svg" xmlns:xlink="http://www.w3.org/1999/xlink">
    <title>待办指令</title>
    <g id="页面-1" stroke="none" stroke-width="1" fill="none" fill-rule="evenodd">
        <g id="svg" transform="translate(-290.000000, -21.000000)">
            <g id="待办指令" transform="translate(290.000000, 21.000000)">
                <rect id="Rectangle-21" x="0" y="0" width="24" height="24"></rect>
                <path d="M16.5688872,11.4353122 C19.0270198,11.4729463 21,13.4763632 21,15.9347826 C21,18.393202 19.0270198,20.3966189 16.5688872,20.434253 C14.9449631,20.4591154 13.433642,19.6070003 12.614418,18.2046389 C11.795194,16.8022774 11.795194,15.0672878 12.614418,13.6649263 C13.433642,12.2625649 14.9449631,11.4104498 16.5688872,11.4353122 Z M15.6699957,4 C17.3165837,4 18.6521733,5.32522397 18.6521733,6.96163414 L18.6521733,11.1605017 L18.6511082,11.1605017 C16.7887831,10.282774 14.5900355,10.5746507 13.0169227,11.9084216 C11.4561571,13.2285479 10.8257789,15.3583774 11.4140023,17.3241345 L6.72559311,17.3241345 L3.56341982,19.2084205 C3.44806555,19.2767877 3.30538401,19.2784212 3.1885175,19.2127128 C3.07241528,19.147759 3.0002887,19.0245932 3.00000064,18.890796 L3.00000064,6.96056108 C2.99893621,5.32522397 4.33346067,4 5.98111378,4 L15.6699957,4 Z M16.5688872,13.4348425 C16.2928095,13.4348425 16.0690044,13.6586475 16.0690044,13.934725 L16.0690044,15.9353099 C16.0690044,16.1188111 16.1681372,16.279111 16.3147274,16.3655886 C16.3412131,16.3897057 16.3702041,16.4109186 16.401205,16.4288649 L18.1339212,17.42863 C18.3730137,17.5666687 18.6787391,17.4847485 18.816778,17.2456561 C18.9548168,17.0065636 18.8728966,16.7008384 18.633804,16.5627996 L17.06877,15.6590035 L17.06877,13.934725 C17.06877,13.6586475 16.8449648,13.4348425 16.5688872,13.4348425 Z M9.56292206,10.1046147 L6.02797657,10.1046147 C5.74916111,10.1046147 5.52313651,10.3323354 5.52313651,10.6132432 C5.52313651,10.8941509 5.74916111,11.1218717 6.02797657,11.1218717 L9.56292206,11.1218717 C9.84173753,11.1218717 10.0677621,10.8941509 10.0677621,10.6132432 C10.0677621,10.3323354 9.84173753,10.1046147 9.56292206,10.1046147 Z M15.6220679,7.05177083 L6.02797657,7.05177083 C5.748867,7.05177083 5.52260398,7.27973177 5.52260398,7.56093583 C5.52260398,7.8421399 5.748867,8.07010083 6.02797657,8.07010083 L15.6220679,8.07010083 C15.9011774,8.07010083 16.1274404,7.8421399 16.1274404,7.56093583 C16.1274404,7.27973177 15.9011774,7.05177083 15.6220679,7.05177083 Z" id="形状结合" fill="#4966F5"></path>
            </g>
        </g>
    </g>
</svg>