<?xml version="1.0" encoding="UTF-8"?>
<svg width="24px" height="24px" viewBox="0 0 24 24" version="1.1" xmlns="http://www.w3.org/2000/svg" xmlns:xlink="http://www.w3.org/1999/xlink">
    <title>指令跟踪</title>
    <g id="页面-1" stroke="none" stroke-width="1" fill="none" fill-rule="evenodd">
        <g id="svg" transform="translate(-20.000000, -75.000000)">
            <g id="指令跟踪" transform="translate(20.000000, 75.000000)">
                <rect id="Rectangle-21" x="0" y="0" width="24" height="24"></rect>
                <path d="M12.72,3 L12.7193881,4.11223186 C16.5194185,4.45437534 19.5456247,7.48058154 19.8877681,11.2806119 L21,11.28 L21,12.72 L19.8876784,12.7203837 C19.5450961,16.519947 16.5190866,19.5456545 12.7193881,19.8877681 L12.72,21 L11.28,21 L11.2796163,19.8876784 C7.48038485,19.545126 4.45487397,16.5196151 4.11232156,12.7203837 L3,12.72 L3,11.28 L4.11223186,11.2806119 C4.45434546,7.48091339 7.48005301,4.45490389 11.2796163,4.11232156 L11.28,3 L12.72,3 Z M12,7.32 C9.41530737,7.32 7.32,9.41530737 7.32,12 C7.32,14.5846926 9.41530737,16.68 12,16.68 C14.5846926,16.68 16.68,14.5846926 16.68,12 C16.68,9.41530737 14.5846926,7.32 12,7.32 Z" id="形状结合" fill="#FF801A" fill-rule="nonzero"></path>
            </g>
        </g>
    </g>
</svg>