<?xml version="1.0" encoding="UTF-8"?>
<svg width="24px" height="24px" viewBox="0 0 24 24" version="1.1" xmlns="http://www.w3.org/2000/svg" xmlns:xlink="http://www.w3.org/1999/xlink">
    <title>公告</title>
    <g id="页面-1" stroke="none" stroke-width="1" fill="none" fill-rule="evenodd">
        <g id="svg" transform="translate(-236.000000, -21.000000)">
            <g id="公告" transform="translate(236.000000, 21.000000)">
                <rect id="矩形" x="0" y="0" width="24" height="24"></rect>
                <path d="M13.69574,4.33760569 C12.9861564,3.90663177 12.1005281,3.88697349 11.3724929,4.28614724 C11.3532369,4.29901814 11.3339054,4.30550386 11.3146493,4.31834962 L6.99643845,7.09841295 L5.50982479,7.09841295 C4.12622857,7.09841295 3,8.22464152 3,9.60823774 L3,15.078419 C3,16.4680987 4.12660564,17.5947043 5.51631051,17.5947043 L7.00279848,17.5947043 L11.3146493,20.40697 C11.3339054,20.4198409 11.359622,20.4327118 11.3789535,20.4455827 C11.732878,20.638621 12.1125946,20.7287676 12.4986964,20.7287676 C12.9170256,20.7287676 13.3288692,20.6129044 13.7085858,20.3941243 C14.4679435,19.9435926 14.9248603,19.1262907 14.9248603,18.2124822 L14.9248603,6.51924776 C14.9119894,5.61189984 14.4550977,4.79462306 13.69574,4.33760569 Z M17.5762901,10.168172 C17.8658601,10.882557 18.0138503,11.6419148 18.0138503,12.4269892 C18.0138503,13.0963009 17.9044728,13.7462812 17.6921533,14.3705197 C17.5634192,14.7437505 17.215905,14.9755021 16.842649,14.9755021 C16.7461173,14.9755021 16.6496107,14.9561454 16.553079,14.9239431 C16.327612,14.8473461 16.1418136,14.6842478 16.0368605,14.4705708 C15.9317817,14.2568938 15.9160702,14.0102351 15.9931447,13.7848687 C16.1412354,13.3472834 16.2184105,12.8903917 16.2184105,12.420604 C16.2184105,11.8671806 16.1154182,11.3394487 15.9094839,10.8374838 C15.7229062,10.3740812 15.9416863,9.85286019 16.4049883,9.66618191 C16.8683908,9.48598936 17.3896118,9.70487002 17.5762901,10.168172 Z M19.841593,7.74849377 C19.5969957,7.31729361 19.0435471,7.16284285 18.6123721,7.4073396 C18.181172,7.65196205 18.0268217,8.19892487 18.2713185,8.63658562 C18.8698403,9.69189857 19.198023,11.0369072 19.198023,12.4269892 C19.198023,13.6303928 18.9598863,14.7823381 18.4965843,15.7669616 C18.2906751,16.2174933 18.4837386,16.7515852 18.9341445,16.9640053 C19.1508884,17.0647351 19.3988291,17.075243 19.6233157,16.9931659 C19.8477771,16.9111642 20.0305337,16.7432392 20.1311882,16.5264199 C20.6974825,15.31007 20.9999234,13.887861 20.9999234,12.4269892 C21.0064091,10.7087245 20.6009507,9.09350244 19.841593,7.74849377 Z" fill="#333333"></path>
            </g>
        </g>
    </g>
</svg>