<?xml version="1.0" encoding="UTF-8"?>
<svg width="24px" height="24px" viewBox="0 0 24 24" version="1.1" xmlns="http://www.w3.org/2000/svg" xmlns:xlink="http://www.w3.org/1999/xlink">
    <title>账户信息</title>
    <g id="页面-1" stroke="none" stroke-width="1" fill="none" fill-rule="evenodd">
        <g id="svg" transform="translate(-20.000000, -279.000000)">
            <g id="账户信息" transform="translate(20.000000, 279.000000)">
                <rect id="Rectangle-21" x="0" y="0" width="24" height="24"></rect>
                <path d="M19.073499,4 C20.1387199,4 21.002344,4.86352362 21.002344,5.928845 L21.002344,18.7876442 C21.002344,19.8528651 20.1387199,20.7164892 19.073499,20.7164892 L4.928845,20.7164892 C3.86352362,20.7164892 3,19.8528651 3,18.7876442 L3,5.928845 C3,4.86352362 3.86352362,4 4.928845,4 L19.073499,4 Z M9.06296734,12.8948002 C6.75501885,12.8948002 4.88420159,14.1786732 4.88420159,15.7620246 C4.88420159,17.3414867 13.2417331,17.3414867 13.2417331,15.7620246 C13.2417331,14.1786732 11.3709158,12.8948002 9.06296734,12.8948002 Z M17.7876442,14.8009314 L16.5017894,14.8009314 L16.38601,14.8112295 C16.0583366,14.8705759 15.8301432,15.1702964 15.860281,15.5019881 C15.8902932,15.8336799 16.1687164,16.08739 16.5017894,16.0867883 L17.7876442,16.0867883 L17.903298,16.0764902 C18.2310719,16.0172442 18.4591648,15.7174233 18.4291526,15.3857315 C18.3990399,15.0541403 18.1206168,14.8003548 17.7876442,14.8009314 Z M17.7876442,11.3292587 L15.215809,11.3292587 L15.1001552,11.3395567 C14.7723814,11.3989031 14.5442884,11.6986236 14.5744011,12.0303153 C14.6044384,12.3620071 14.8828616,12.6157172 15.215809,12.6151155 L17.7876442,12.6151155 L17.903298,12.6048174 C18.2310719,12.5455714 18.4591648,12.2457505 18.4291526,11.9140587 C18.3990399,11.5824675 18.1206168,11.328682 17.7876442,11.3292587 Z M9.06296734,7.16429001 C7.55853487,7.16429001 6.34137131,8.38125664 6.34137131,9.88184902 C6.34137131,11.3824906 7.56237497,12.599408 9.06296734,12.599408 C10.563609,12.599408 11.7805756,11.3824906 11.7805756,9.88184902 C11.7805756,8.38125664 10.563609,7.16429001 9.06296734,7.16429001 Z M17.7876442,7.85758586 L15.215809,7.85758586 L15.1001552,7.86788393 C14.7723814,7.9272303 14.5442884,8.22695082 14.5744011,8.55864255 C14.6044384,8.89033427 14.8828616,9.1440444 15.215809,9.14344272 L17.7876442,9.14344272 L17.903298,9.13314456 C18.2310719,9.07389865 18.4591648,8.77407766 18.4291526,8.44238594 C18.3990399,8.11079468 18.1206168,7.8570092 17.7876442,7.85758586 Z" id="Fill-1" fill="#4966F5"></path>
            </g>
        </g>
    </g>
</svg>