<?xml version="1.0" encoding="UTF-8"?>
<svg width="24px" height="24px" viewBox="0 0 24 24" version="1.1" xmlns="http://www.w3.org/2000/svg" xmlns:xlink="http://www.w3.org/1999/xlink">
    <title>半自动扣费</title>
    <g id="页面-1" stroke="none" stroke-width="1" fill="none" fill-rule="evenodd">
        <g id="svg" transform="translate(-335.000000, -225.000000)">
            <g id="半自动扣费" transform="translate(335.000000, 225.000000)">
                <rect id="Rectangle-21" x="0" y="0" width="24" height="24"></rect>
                <g id="yinhangqia" transform="translate(4.000000, 6.000000)" fill="#ED6755">
                    <path d="M15.7513185,1.12507063 L15.7513185,2.25014126 L7.10542736e-14,2.25014126 L7.10542736e-14,1.12507063 C7.10542736e-14,0.506269699 0.506269699,1.20792265e-13 1.12507063,1.20792265e-13 L14.6262478,1.20792265e-13 C15.2450488,1.20792265e-13 15.7513185,0.506269699 15.7513185,1.12507063 Z M15.7513185,3.37532177 L15.7517552,5.55001704 C15.1636008,5.23876194 14.4930095,5.0625 13.78125,5.0625 C11.4512987,5.0625 9.5625,6.95129871 9.5625,9.28125 C9.5625,9.99260139 9.73855987,10.6628318 10.0494818,11.2507434 L1.12507063,11.2509261 C0.506269699,11.2509261 7.10542736e-14,10.7446564 7.10542736e-14,10.1258554 L7.10542736e-14,3.37532177 L15.7513185,3.37532177 Z M1.12507063,8.43819455 L3.37532177,8.43819455 L3.37532177,7.8756043 L1.12507063,7.8756043 L1.12507063,8.43819455 Z M1.12507063,7.31312392 L5.62546303,7.31312392 L5.62546303,6.75053367 L1.12507063,6.75053367 L1.12507063,7.31312392 Z" id="Fill-1"></path>
                    <path d="M13.78125,6.1875 C15.4898809,6.1875 16.875,7.57261906 16.875,9.28125 C16.875,10.9898809 15.4898809,12.375 13.78125,12.375 C12.0726191,12.375 10.6875,10.9898809 10.6875,9.28125 C10.6875,7.57261906 12.0726191,6.1875 13.78125,6.1875 Z M13.6626087,8.11605359 L13.652447,8.18431102 L13.6518924,8.41809119 C13.5347286,8.41864573 13.4203944,8.4323101 13.3100557,8.4567453 C12.558174,8.62454263 11.9933919,9.31499148 11.9933919,10.1453828 C11.9933919,10.2824602 12.0087483,10.4092929 12.0354941,10.5327059 C12.04913,10.5964137 12.0661785,10.658984 12.0855375,10.7215543 C12.1122549,10.6436276 12.1446882,10.5685304 12.1816502,10.4957438 C12.4603408,9.94745562 13.0114586,9.56982275 13.652447,9.56982275 L13.652447,9.77682872 L13.6525199,9.7845176 L13.65303,9.79276812 C13.6649738,10.0526826 13.9669906,10.1954547 14.1762716,10.033352 L15.1966204,9.24447991 C15.3649652,9.11423471 15.3649652,8.86056939 15.1966204,8.7303242 L14.175717,7.94317255 C13.9854357,7.79631062 13.7185368,7.90095297 13.6626087,8.11605359 Z" id="椭圆形备份-5"></path>
                </g>
            </g>
        </g>
    </g>
</svg>