<?xml version="1.0" encoding="UTF-8"?>
<svg width="24px" height="24px" viewBox="0 0 24 24" version="1.1" xmlns="http://www.w3.org/2000/svg" xmlns:xlink="http://www.w3.org/1999/xlink">
    <title>产品信息</title>
    <g id="页面-1" stroke="none" stroke-width="1" fill="none" fill-rule="evenodd">
        <g id="svg" transform="translate(-20.000000, -225.000000)">
            <g id="产品信息" transform="translate(20.000000, 225.000000)">
                <rect id="Rectangle-21" x="0" y="0" width="24" height="24"></rect>
                <g id="编组-27" transform="translate(3.000000, 3.000000)" fill="#4966F5" fill-rule="nonzero">
                    <path d="M16.1091072,6.28030806 L10.3348224,9.4560347 C9.801216,9.74549803 9.476352,10.3258197 9.476352,10.9710091 L9.476352,17.1111192 C9.476352,17.7702586 10.1136384,18.2048024 10.6465536,17.901389 L16.4215296,14.7263599 C16.9420032,14.436199 17.28,13.8565749 17.28,13.210688 L17.28,7.08383037 C17.28,6.41213594 16.6427136,5.99084473 16.1091072,6.28030806 Z" id="路径"></path>
                    <path d="M6.9451776,9.44138715 L1.1708928,6.28030806 C0.6372864,5.99154223 4.52526905e-13,6.41283344 4.52526905e-13,7.07057784 L4.52526905e-13,13.2337056 C4.52526905e-13,13.8788949 0.324864,14.4585191 0.8584704,14.7479824 L6.6334464,17.908364 C7.1663616,18.1985248 7.803648,17.7639811 7.803648,17.1055392 L7.803648,10.955664 C7.803648,10.3104747 7.478784,9.73085049 6.9451776,9.44138715 L6.9451776,9.44138715 Z" id="路径"></path>
                    <path d="M15.2216064,4.57491566 C15.4987776,4.43053274 15.6307968,4.18082702 15.6045312,3.94437384 C15.6307968,3.69397062 15.4987776,3.45751744 15.2216064,3.31313453 L9.2572416,0.210645606 C8.9932032,0.0655651886 8.6766336,2.27373675e-13 8.360064,2.27373675e-13 C8.0434944,2.27373675e-13 7.7269248,0.0655651886 7.4628864,0.210645606 L1.4985216,3.29918449 C1.2220416,3.4435674 1.102464,3.69327312 1.1155968,3.9304238 C1.102464,4.18012952 1.2213504,4.42983524 1.4985216,4.57421816 L7.4628864,7.66415204 C7.7269248,7.80853496 8.0434944,7.87410015 8.360064,7.87410015 C8.6766336,7.87410015 8.9932032,7.80853496 9.2572416,7.66415204 L15.2222976,4.57421816 L15.2216064,4.57491566 Z" id="路径"></path>
                </g>
            </g>
        </g>
    </g>
</svg>