<?xml version="1.0" encoding="UTF-8"?>
<svg width="24px" height="24px" viewBox="0 0 24 24" version="1.1" xmlns="http://www.w3.org/2000/svg" xmlns:xlink="http://www.w3.org/1999/xlink">
    <title>首页-active</title>
    <g id="页面-1" stroke="none" stroke-width="1" fill="none" fill-rule="evenodd">
        <g id="svg" transform="translate(-20.000000, -138.000000)">
            <g id="首页-active" transform="translate(20.000000, 138.000000)">
                <rect id="Rectangle-21" x="0" y="0" width="24" height="24"></rect>
                <g transform="translate(2.000000, 2.000000)" fill-rule="nonzero">
                    <path d="M19.3605066,8.65461109 L11.7758229,0.760660039 C11.3053703,0.27164041 10.6746121,0 10,0 C9.3251502,0 8.69450333,0.269077773 8.22393945,0.760660039 L0.641927433,8.65461109 C-0.141343793,9.46953238 -0.040707474,10.17348 0.0886502875,10.468407 C0.181605301,10.6779869 0.491974854,11.2496797 1.38901857,11.2496797 L2.50058241,11.2496797 L2.50058241,17.3220354 C2.50058241,18.6718811 3.44939148,19.9440675 4.80831585,19.9975488 L6.27544652,20 C7.64772968,20 8.10070447,19.0992858 8.12174459,17.7740638 L8.12575225,17.7715012 L8.12575225,13.5729964 C8.12575225,12.8846475 8.02233284,12.4992479 8.72556254,12.4992479 L11.2770942,12.4992479 C11.9801012,12.4992479 11.8755686,12.8823077 11.8755686,13.5729964 L11.8764592,16.179764 L11.8755686,17.676349 C11.8755686,17.7459861 11.874678,17.833896 11.8769045,17.9346191 L11.8769045,17.9524462 L11.8773498,17.9527805 C11.8943823,18.669987 12.0677127,20 13.7235365,20 L15.1907785,20 L15.1907785,19.9974374 C16.5502595,19.9446246 17.4995139,18.6721039 17.4995139,17.321924 L17.4995139,11.2495682 L18.6110777,11.2495682 C19.5081214,11.2495682 19.8183796,10.6754242 19.911446,10.4682956 C20.0404698,10.17348 20.1412174,9.46953238 19.3605066,8.65461109 Z" id="形状备份-3" fill="#4966F5"></path>
                    <path d="M16.2531148,5.41680166 L11.7758229,0.760660039 C11.3053703,0.27164041 10.6746121,-6.52811138e-14 9.99999247,-6.52811138e-14 C9.3251502,-6.52811138e-14 8.69450333,0.269077773 8.22393945,0.760660039 L3.7517909,5.41680166 C4.73798728,4.43361021 6.82154128,3.94478406 10.0024529,3.95032322 C13.3186684,3.95609799 15.4022224,4.44492414 16.2531148,5.41680166 Z" id="形状备份-4" fill="#FF801A"></path>
                </g>
            </g>
        </g>
    </g>
</svg>