<?xml version="1.0" encoding="UTF-8"?>
<svg width="24px" height="24px" viewBox="0 0 24 24" version="1.1" xmlns="http://www.w3.org/2000/svg" xmlns:xlink="http://www.w3.org/1999/xlink">
    <title>指令跟踪</title>
    <g id="页面-1" stroke="none" stroke-width="1" fill="none" fill-rule="evenodd">
        <g id="svg" transform="translate(-20.000000, -75.000000)">
            <g id="指令跟踪" transform="translate(20.000000, 75.000000)">
                <rect id="Rectangle-21" x="0" y="0" width="24" height="24"></rect>
                <path d="M12.8,2 L12.7997553,3.23585236 C17.021662,3.61619054 20.3838095,6.97833797 20.7641476,11.2002447 L22,11.2 L22,12.8 L20.7640574,12.8007568 C20.3832777,17.0221937 17.0213282,20.3838395 12.7997553,20.7641476 L12.8,22 L11.2,22 L11.1992432,20.7640574 C6.9781401,20.3833078 3.61669216,17.0218599 3.23594265,12.8007568 L2,12.8 L2,11.2 L3.23585236,11.2002447 C3.61616046,6.97867182 6.97780625,3.61672227 11.1992432,3.23594265 L11.2,2 L12.8,2 Z M12,6.8 C9.1281193,6.8 6.8,9.1281193 6.8,12 C6.8,14.8718807 9.1281193,17.2 12,17.2 C14.8718807,17.2 17.2,14.8718807 17.2,12 C17.2,9.1281193 14.8718807,6.8 12,6.8 Z" id="形状结合" fill="#ED6755" fill-rule="nonzero"></path>
            </g>
        </g>
    </g>
</svg>