<?xml version="1.0" encoding="UTF-8"?>
<svg width="24px" height="24px" viewBox="0 0 24 24" version="1.1" xmlns="http://www.w3.org/2000/svg" xmlns:xlink="http://www.w3.org/1999/xlink">
    <title>托管户余额</title>
    <g id="页面-1" stroke="none" stroke-width="1" fill="none" fill-rule="evenodd">
        <g id="svg" transform="translate(-146.000000, -75.000000)">
            <g id="托管户余额" transform="translate(146.000000, 75.000000)">
                <rect id="Rectangle-21" x="0" y="0" width="24" height="24"></rect>
                <path d="M19,3 L19,5.8 L21,5.8 L21,9.8 L14.9746309,9.8 C13.2285839,9.8 11.8,11.4451328 11.8,13.4560515 L11.8,13.5929451 C11.8,15.6035625 13.2286711,17.2484945 14.9746309,17.2484945 L21,17.248 L21,20.2 L4.33002648,20.2 C3.64425967,20.2 3.07533704,19.6759447 3.00690049,19.0100124 L3,18.8750475 L3,7.12503776 C3,6.44180717 3.5260622,5.87504997 4.19454471,5.80687419 L4.33002648,5.8 L5.4,5.8 L5.4,3 L19,3 Z M14.2999502,11.9125885 C14.8568974,11.5910419 15.5431026,11.5910419 16.1000498,11.9125885 C16.6569971,12.234135 17.0000617,12.8283711 17,13.4714286 C17.0000617,14.1144861 16.6569971,14.7087221 16.1000498,15.0302687 L16.1462488,15.0028653 C15.884262,15.2226148 15.5616628,15.352273 15.2128154,15.352273 C14.8898578,15.352273 14.589428,15.2411953 14.3387629,15.0503953 L14.2999502,15.0302687 C13.7430029,14.7087221 13.3999383,14.1144861 13.4,13.4714286 C13.3999383,12.8283711 13.7430029,12.234135 14.2999502,11.9125885 Z" id="形状结合" fill="#4966F5" fill-rule="nonzero"></path>
            </g>
        </g>
    </g>
</svg>