<?xml version="1.0" encoding="UTF-8"?>
<svg width="24px" height="24px" viewBox="0 0 24 24" version="1.1" xmlns="http://www.w3.org/2000/svg" xmlns:xlink="http://www.w3.org/1999/xlink">
    <title>托管户流水</title>
    <g id="页面-1" stroke="none" stroke-width="1" fill="none" fill-rule="evenodd">
        <g id="svg" transform="translate(-272.000000, -75.000000)">
            <g id="托管户流水" transform="translate(272.000000, 75.000000)">
                <rect id="Rectangle-21" x="0" y="0" width="24" height="24"></rect>
                <path d="M21,4 C21.5522847,4 22,4.44771525 22,5 L22,10.84 L19.34,10.839 L19.34,19.72 C19.34,20.2722847 18.8922847,20.72 18.34,20.72 L6.66,20.72 C6.10771525,20.72 5.66,20.2722847 5.66,19.72 L5.66,10.839 L3,10.84 L3,5 C3,4.44771525 3.44771525,4 4,4 L21,4 Z M11.3270866,10.84 L9.96566929,10.84 L11.3375591,13.741516 L9.84,13.741516 L9.84,14.5890379 L11.5888976,14.5890379 L11.8088189,15.0377259 L11.8088189,15.3966764 L9.84,15.3966764 L9.84,16.2441983 L11.8088189,16.2441983 L11.8088189,17.68 L13.117874,17.68 L13.117874,16.2441983 L15.0762205,16.2441983 L15.0762205,15.3966764 L13.117874,15.3966764 L13.117874,15.0377259 L13.3377953,14.5890379 L15.0762205,14.5890379 L15.0762205,13.741516 L13.7985827,13.741516 L15.16,10.84 L13.83,10.84 L12.5523622,13.8312536 L11.3270866,10.84 Z M19.98,6.28 L5.02,6.28 C4.77454011,6.28 4.57039163,6.45687516 4.52805567,6.69012437 L4.52,6.78 L4.52,8.06 C4.52,8.30545989 4.69687516,8.50960837 4.93012437,8.55194433 L5.02,8.56 L5.66,8.559 L5.66,7.8 L19.34,7.8 L19.34,8.559 L19.98,8.56 C20.2254599,8.56 20.4296084,8.38312484 20.4719443,8.14987563 L20.48,8.06 L20.48,6.78 C20.48,6.50385763 20.2561424,6.28 19.98,6.28 Z" id="形状结合" fill="#ED6755" fill-rule="nonzero"></path>
            </g>
        </g>
    </g>
</svg>