<?xml version="1.0" encoding="UTF-8"?>
<svg width="186px" height="21px" viewBox="0 0 186 21" version="1.1" xmlns="http://www.w3.org/2000/svg" xmlns:xlink="http://www.w3.org/1999/xlink">
    <title>编组</title>
    <g id="页面-1" stroke="none" stroke-width="1" fill="none" fill-rule="evenodd">
        <g id="首页" transform="translate(-15.000000, -41.000000)">
            <g id="编组" transform="translate(15.000000, 41.000000)">
                <g id="logo" transform="translate(0.000000, 2.000000)">
                    <path d="M26.2599785,-2.04281037e-13 L50,0.010611632 L50,12.3181753 L30.9450174,12.3077566 L30.9450174,18.4615385 L-1.0658141e-14,18.4615385 L-1.0658141e-14,6.15378184 L26.2599785,6.15378184 L26.2599785,-2.04281037e-13 Z M10.7856877,8.88330581 L9.42923004,8.88330581 L9.42923004,13.278065 C9.42923004,14.0083382 9.66990116,14.6047119 10.1516266,15.0671861 C10.6251126,15.5151899 11.5214975,15.7391918 12.3054032,15.7391918 C13.8912266,15.7391918 14.5532638,15.231377 15.0627738,14.9680156 L15.0627738,14.9680156 L15.0627738,8.88330581 L13.7061245,8.88330581 L13.7061245,14.2377424 C13.2276565,14.4793017 11.8803964,14.7862673 11.1568501,14.2319542 C10.8822628,14.021458 10.7856877,13.671853 10.7856877,13.278065 L10.7856877,13.278065 L10.7856877,8.88330581 Z M17.5044934,8.88317076 L16.1480357,8.88317076 L16.1480357,15.7392497 L17.5044934,15.7392497 L17.5044934,10.9786787 L21.7765974,15.7392497 L21.7765974,13.6356384 L17.5044934,8.88317076 Z M4.06678624,8.8924704 L2.71032855,8.8924704 L2.71032855,15.7300272 L4.06678624,15.7300272 L4.06678624,12.9941556 L6.9876062,12.9941556 L6.9876062,15.7300272 L8.34406389,15.7300272 L8.34406389,8.8924704 L6.9876062,8.8924704 L6.9876062,11.6283421 L4.06678624,11.6283421 L4.06678624,8.8924704 Z M24.8257051,8.87624425 L22.8618211,8.87624425 L22.8618211,15.7300079 L24.8257051,15.7300079 C25.8474076,15.7300079 26.6734691,15.4010473 27.3036978,14.7429332 C27.909208,14.1099011 28.2121547,13.2980148 28.2121547,12.3076602 C28.2121547,11.3238654 27.909208,10.5119791 27.3036978,9.87219415 C26.6673373,9.20809893 25.8412759,8.87624425 24.8257051,8.87624425 L24.8257051,8.87624425 Z M24.9682682,10.219098 C25.5417783,10.219098 25.9985935,10.4158956 26.3389056,10.8092977 C26.684008,11.2075233 26.8566551,11.7056912 26.8566551,12.3032226 C26.8566551,12.9057703 26.6863074,13.3987289 26.346187,13.7820982 C25.9962941,14.1853402 25.5369879,14.3871541 24.9682682,14.3871541 L24.9682682,14.3871541 L24.7987085,14.387736 C24.608796,14.3888103 24.3767216,14.3910932 24.2725539,14.3921675 L24.2173207,14.3927494 L24.2173207,10.219098 Z M36.2628144,2.73293899 L34.9063567,2.73293899 L34.9063567,7.12769813 C34.9063567,7.85797135 35.1470278,8.45434506 35.6287533,8.91681928 C36.1022392,9.36482308 36.9986242,9.58882499 37.7825299,9.58882499 C39.3683533,9.58882499 40.0303905,9.08101016 40.5399004,8.81764875 L40.5399004,8.81764875 L40.5399004,2.73293899 L39.1832511,2.73293899 L39.1832511,8.08737553 C38.7047831,8.32893487 37.3575231,8.63590044 36.6339768,8.08158737 C36.3593894,7.87109118 36.2628144,7.52148614 36.2628144,7.12769813 L36.2628144,7.12769813 L36.2628144,2.73293899 Z M47.2538774,2.73282322 L45.8974197,2.73282322 L45.8974197,7.49339426 L41.6253157,2.73282322 L41.6253157,4.83643456 L45.8974197,9.58890216 L47.2538774,9.58890216 L47.2538774,2.73282322 Z M31.6703457,2.73394227 C31.0347517,2.73394227 30.501098,2.87768165 30.0693846,3.16458159 C29.5560423,3.50087385 29.2994669,4.001357 29.2994669,4.66564516 C29.2994669,5.22362407 29.5723297,5.68725591 30.1182469,6.05615483 C30.1833968,6.10535421 30.6842839,6.3596475 31.6212917,6.8190347 C32.1670173,7.08992072 32.4400717,7.3770136 32.4400717,7.68050627 C32.4400717,7.90180703 32.3260595,8.08857175 32.0978435,8.24022162 C31.8696275,8.39206443 31.5846929,8.4680823 31.2424647,8.4680823 C30.6233497,8.4680823 29.9716598,8.30369848 29.2872034,7.97589552 L28.9555142,9.15629487 L29.4496948,9.30948825 L29.4519942,9.30524359 C30.038151,9.49046481 30.6503677,9.58770594 31.291327,9.58770594 C31.9184899,9.58770594 32.4645987,9.45206999 32.928887,9.18156985 C33.523475,8.82887779 33.8210564,8.30794313 33.8210564,7.61895881 C33.8210564,7.02007689 33.5489601,6.52364545 33.0053423,6.12985743 C32.8185156,5.99885201 32.3072811,5.74031407 31.4716387,5.35462949 C30.9278293,5.10091501 30.655733,4.84623585 30.655733,4.59194256 C30.655733,4.11634851 31.0249792,3.87845501 31.76328,3.87845501 C32.2578438,3.87845501 32.825797,4.00946043 33.4667563,4.27185715 L33.4667563,3.0536418 C32.8066353,2.84063741 32.2078318,2.73394227 31.6703457,2.73394227 Z" id="Fill-3" fill="#FFFFFF"></path>
                    <text id="专业机构服务平台" font-family="DFPLiJinHeiW8, DFPLiJinHeiW8-GB" font-size="16" font-weight="normal" fill="#FEFFFE">
                        <tspan x="58" y="15">专业机构服务平台</tspan>
                    </text>
                </g>
                <g transform="translate(36.000000, 0.000000)"></g>
            </g>
        </g>
    </g>
</svg>