<?xml version="1.0" encoding="UTF-8"?>
<svg width="24px" height="24px" viewBox="0 0 24 24" version="1.1" xmlns="http://www.w3.org/2000/svg" xmlns:xlink="http://www.w3.org/1999/xlink">
    <title>全部菜单</title>
    <g id="页面-1" stroke="none" stroke-width="1" fill="none" fill-rule="evenodd">
        <g id="svg" transform="translate(-335.000000, -279.000000)">
            <g id="全部菜单" transform="translate(335.000000, 279.000000)">
                <rect id="Rectangle-21" x="0" y="0" width="24" height="24"></rect>
                <g id="gengduo" transform="translate(3.377000, 3.000000)" fill="#4966F5">
                    <path d="M5.13156933,9.28865567 C7.05933321,9.29084791 8.62143108,10.8529458 8.62362332,12.7807097 L8.62362332,14.420225 C8.62143108,16.3478636 7.05933321,17.9100868 5.13156933,17.912279 L3.49255508,17.912279 C1.5647912,17.9100868 0.00244278422,16.3479889 -4.08562073e-13,14.420225 L-4.08562073e-13,12.7807097 C0.00219224225,10.8526952 1.56466593,9.2904721 3.49255508,9.28865567 L5.13156933,9.28865567 Z M14.5078207,9.20888937 C16.4355846,9.21108161 17.9976825,10.7733048 18,12.7009434 L18,14.3404587 C17.9982775,16.2685984 16.4359291,17.8314166 14.5078207,17.8336088 L12.8683054,17.8336088 C10.9406668,17.8314166 9.37844365,16.2691934 9.3762514,14.3415548 L9.3762514,12.7020395 C9.37794256,10.7739311 10.940291,9.21108161 12.8683054,9.20888937 L14.5078207,9.20888937 Z M5.13156933,0.0786701789 C7.05933321,0.0808624211 8.62143108,1.64308556 8.62362332,3.57072417 L8.62362332,5.21023951 C8.62143108,7.13800339 7.05933321,8.70010126 5.13156933,8.7022935 L3.49255508,8.7022935 C1.56466593,8.7003518 0.00219224225,7.13812866 -4.08562073e-13,5.21023951 L-4.08562073e-13,3.57072417 C0.00219224225,1.64283502 1.56466593,0.0806118792 3.49255508,0.0786701789 L5.13156933,0.0786701789 Z M14.5078207,-4.11226608e-13 C16.4358352,0.00219224225 17.998027,1.56466593 18,3.49255508 L18,5.13156933 C17.9976825,7.05933321 16.4355846,8.62143108 14.5078207,8.62362332 L12.8683054,8.62362332 C10.9406668,8.62143108 9.37844365,7.05933321 9.3762514,5.13156933 L9.3762514,3.49255508 C9.37819311,1.56466593 10.9404162,0.00219224225 12.8683054,-4.11226608e-13 L14.5078207,-4.11226608e-13 Z" id="形状结合"></path>
                </g>
            </g>
        </g>
    </g>
</svg>