<?xml version="1.0" encoding="UTF-8"?>
<svg width="79px" height="17px" viewBox="0 0 79 17" version="1.1" xmlns="http://www.w3.org/2000/svg" xmlns:xlink="http://www.w3.org/1999/xlink">
    <title>待办任务@2x</title>
    <defs>
        <linearGradient x1="50%" y1="0%" x2="50%" y2="100%" id="linearGradient-1">
            <stop stop-color="#FF4525" offset="0%"></stop>
            <stop stop-color="#FFB89E" offset="100%"></stop>
        </linearGradient>
    </defs>
    <g id="页面-1" stroke="none" stroke-width="1" fill="none" fill-rule="evenodd">
        <g id="首页" transform="translate(-25.000000, -389.000000)" fill-rule="nonzero">
            <g id="业务办理备份" transform="translate(10.000000, 370.000000)">
                <g id="待办任务" transform="translate(15.000000, 19.000000)">
                    <g id="编组" transform="translate(66.999840, 0.000000)" fill="url(#linearGradient-1)">
                        <path d="M4.00015998,0 C8.41843798,0 12.00016,3.581722 12.00016,8 C12.00016,12.418278 8.41843798,16 4.00015998,16 C2.54274621,16 1.17635618,15.610281 -0.000482465587,14.9293708 L0.000323024086,11.7751108 C1.00308356,12.8371824 2.42421709,13.5 4.00015998,13.5 C7.0377261,13.5 9.50015998,11.0375661 9.50015998,8 C9.50015998,5.4825098 7.80875083,3.36006936 5.50033615,2.70708232 L5.50015998,7.36322633 L7.57701831,9.86704043 L5.85457072,11.4716799 L3.00015998,8.1259226 L3.00035185,2.59065287 C1.82807532,2.80593981 0.785834779,3.39291618 0.000323024086,4.2248892 L-0.000482465587,1.07062924 C1.17635618,0.38971896 2.54274621,0 4.00015998,0 Z" id="形状结合"></path>
                    </g>
                    <path d="M25.2533093,4 C25.313588,4 25.3733701,4.01089988 25.4297701,4.03217357 C25.6881435,4.1296302 25.8185923,4.41808744 25.7211357,4.67646085 L25.7211357,4.67646085 L25.202292,6.052 L28.5329939,6.052 L28.6026775,6.05687962 C28.8761249,6.09536481 29.0665995,6.34823617 29.0281143,6.62168361 L29.0281143,6.62168361 L27.740292,15.772 C27.680292,16.12 27.515292,16.405 27.245292,16.627 C26.975292,16.849 26.672292,16.96 26.336292,16.96 L26.336292,16.96 L24.2939582,16.96 C24.1641878,16.96 24.0395009,16.9095462 23.9462475,16.8193011 C23.747811,16.6272657 23.7426219,16.3107258 23.9346572,16.1122893 L23.9346572,16.1122893 L24.734292,15.286 L25.778292,7.762 L24.554292,7.762 L21.1847417,16.637465 C21.1110305,16.8316218 20.9249734,16.96 20.7172952,16.96 L20.7172952,16.96 L18.3656115,16.96 C18.3052595,16.96 18.245406,16.9490736 18.1889468,16.9277495 C17.9306159,16.8301803 17.8002928,16.5416662 17.897862,16.2833353 L17.897862,16.2833353 L21.116292,7.762 L17.8073764,7.762 L17.7344795,7.7566575 C17.4612877,7.71639766 17.272459,7.4622949 17.3127189,7.18910311 L17.3127189,7.18910311 L17.4173505,6.47910311 C17.4535054,6.23376626 17.6640214,6.052 17.912008,6.052 L17.912008,6.052 L21.764292,6.052 L22.4653688,4.31304239 C22.5416312,4.12388046 22.7251439,4 22.9291002,4 L22.9291002,4 Z M37.4126325,4.12581046 L37.4956321,4.13048104 C37.7690942,4.16886169 37.9596654,4.42166022 37.9212848,4.69512235 L37.9212848,4.69512235 L37.7308458,6.052 L37.7128458,6.052 L36.2432362,16.5294521 C36.2086062,16.7763433 35.9973913,16.96 35.7480833,16.96 L35.7480833,16.96 L33.5000623,16.96 L33.4304482,16.9551302 C33.1569954,16.9166834 32.9664853,16.6638388 33.0049321,16.3903859 L33.0049321,16.3903859 L34.3648458,6.718 L34.0060999,6.78603801 C33.9524563,6.79621179 33.8975086,6.79753049 33.8434388,6.78994174 C33.5699766,6.75156109 33.3794054,6.49876257 33.4177861,6.22530044 L33.4177861,6.22530044 L33.5593439,5.21670128 C33.5889712,5.00560656 33.7491725,4.83650743 33.9583592,4.79552389 L33.9583592,4.79552389 L37.3300062,4.13495633 C37.3845817,4.12426398 37.4405587,4.12275145 37.4956321,4.13048104 Z M57.3899187,10.66 C57.524314,10.66 57.6530508,10.7141036 57.747098,10.8101101 C57.9403368,11.0073748 57.9370733,11.3239404 57.7328458,11.524 L57.7328458,11.524 L63.6188458,11.524 L63.0248458,15.772 C62.9648458,16.12 62.8028458,16.405 62.5388458,16.627 C62.2748458,16.849 61.9688458,16.96 61.6208458,16.96 L61.6208458,16.96 L59.2365121,16.96 C59.1067416,16.96 58.9820547,16.9095462 58.8888014,16.8193011 C58.6903648,16.6272657 58.6851757,16.3107258 58.877211,16.1122893 L58.877211,16.1122893 L59.6768458,15.286 L59.9648458,13.234 L56.0048458,13.234 L52.3889953,16.8152491 C52.2953691,16.9079793 52.1689212,16.96 52.0371457,16.96 L52.0371457,16.96 L49.6962076,16.96 C49.5627662,16.96 49.4348612,16.9066594 49.3409586,16.8118495 C49.1466375,16.6156509 49.1481595,16.2990721 49.3443581,16.1047509 L49.3443581,16.1047509 L52.2428458,13.234 L49.9359266,13.234 L49.8681373,13.2293833 C49.5945446,13.1919443 49.4031043,12.9398033 49.4405433,12.6662107 L49.4405433,12.6662107 L49.5377012,11.9562107 C49.5715885,11.7085725 49.7831384,11.524 50.0330845,11.524 L50.0330845,11.524 L53.9708458,11.524 L54.7070496,10.8028207 C54.8005042,10.7112734 54.9261165,10.66 55.0569396,10.66 L55.0569396,10.66 Z M11.7337871,4.036 L11.8044978,4.04102525 C12.0778648,4.08007768 12.2678143,4.33334367 12.2287619,4.60671068 L12.2287619,4.60671068 L12.130292,5.296 L14.4572004,5.296 L14.5232823,5.30038605 C14.7970023,5.33688205 14.9893104,5.58836183 14.9528144,5.86208186 L14.9528144,5.86208186 L14.8701477,6.48208186 C14.8370273,6.73048487 14.6251351,6.916 14.3745338,6.916 L14.3745338,6.916 L11.896292,6.916 L11.752292,8.014 L14.5589461,8.014 L14.6303709,8.0191278 C14.9036813,8.05857466 15.0932651,8.31211449 15.0538183,8.58542485 L15.0538183,8.58542485 L14.9461482,9.33142485 C14.9106427,9.57742703 14.6998272,9.76 14.451276,9.76 L14.451276,9.76 L13.714292,9.76 L13.570292,10.822 L14.1665926,10.822 L14.2349113,10.8266894 C14.5084638,10.8644208 14.6996346,11.1167662 14.6619032,11.3903187 L14.6619032,11.3903187 L14.5838342,11.9563187 C14.54971,12.2037193 14.3382666,12.388 14.0885237,12.388 L14.0885237,12.388 L13.354292,12.388 L12.886292,15.718 C12.838292,16.066 12.682292,16.351 12.418292,16.573 C12.154292,16.795 11.848292,16.906 11.500292,16.906 L11.500292,16.906 L9.34085386,16.906 C9.21204882,16.906 9.08821254,16.8562922 8.99515436,16.7672366 C8.79564892,16.576312 8.78869274,16.2598059 8.9796173,16.0603005 L8.9796173,16.0603005 L9.77229197,15.232 L10.168292,12.388 L5.08999132,12.388 L5.02167262,12.3833106 C4.74812015,12.3455792 4.55694938,12.0932338 4.59468076,11.8196813 L4.59468076,11.8196813 L4.67274972,11.2536813 C4.70687394,11.0062807 4.91831738,10.822 5.16806029,10.822 L5.16806029,10.822 L10.384292,10.822 L10.528292,9.76 L5.32783351,9.7587164 L5.292213,9.7548722 C5.01890264,9.71542534 4.8293188,9.46188551 4.86876566,9.18857515 L4.86876566,9.18857515 L4.97643576,8.44257515 C5.01194123,8.19657297 5.22275674,8.014 5.47130796,8.014 L5.47130796,8.014 L8.44029197,8.014 L8.58429197,6.916 L6.2033835,6.916 L6.13730164,6.91161395 C5.86358162,6.87511795 5.67127355,6.62363817 5.70776955,6.34991814 L5.70776955,6.34991814 L5.79043622,5.72991814 C5.82355662,5.48151513 6.03544886,5.296 6.28605017,5.296 L6.28605017,5.296 L8.81829197,5.296 L8.94905199,4.45883834 C8.9870697,4.21543847 9.19671113,4.036 9.44306219,4.036 L9.44306219,4.036 L11.7337871,4.036 Z M4.00007865,6.86181046 L4.08307827,6.86648104 C4.3565404,6.90486169 4.54711159,7.15766022 4.50873094,7.43112235 L4.50873094,7.43112235 L3.24447399,16.4751732 C3.20996834,16.7221898 2.9986971,16.906 2.74928203,16.906 L2.74928203,16.906 L0.501223204,16.906 L0.431852359,16.9011643 C0.158380667,16.8628518 -0.0322535578,16.6101008 0.00605890159,16.3366292 L0.00605890159,16.3366292 L0.970291972,9.454 L0.591703353,9.52458432 C0.538540539,9.53449603 0.484121828,9.53571751 0.430567824,9.52820116 C0.157105694,9.48982051 -0.0334655,9.23702199 0.00491514994,8.96355986 L0.00491514994,8.96355986 L0.146790038,7.95270128 C0.176417367,7.74160656 0.336618645,7.57250743 0.545805428,7.53152389 L0.545805428,7.53152389 L3.91745235,6.87095633 C3.97202792,6.86026398 4.02800493,6.85875145 4.08307827,6.86648104 Z M47.340593,4.06966328 L47.4034929,4.07447281 C47.676955,4.11285346 47.8675262,4.36565198 47.8291456,4.63911411 L47.8291456,4.63911411 L47.6844833,5.66983284 C47.6528837,5.8949798 47.4733652,6.07046324 47.2475582,6.09693716 L47.2475582,6.09693716 L45.0208458,6.358 L44.5708458,9.472 L47.4673367,9.47328186 L47.5029333,9.47712087 C47.7762475,9.51654119 47.965856,9.7700626 47.9264357,10.0433768 L47.9264357,10.0433768 L47.8006664,10.9153768 C47.7651822,11.1614007 47.554357,11.344 47.3057873,11.344 L47.3057873,11.344 L44.3188458,11.344 L43.8328458,14.782 L46.1590281,14.782 L46.2257341,14.7864697 C46.499408,14.8233104 46.6913992,15.0750322 46.6545584,15.348706 L46.6545584,15.348706 L46.5371738,16.220706 C46.5037726,16.4688297 46.2920053,16.654 46.0416435,16.654 L46.0416435,16.654 L37.8166635,16.654 L37.7499575,16.6495303 C37.4762836,16.6126896 37.2842924,16.3609678 37.3211331,16.087294 L37.3211331,16.087294 L37.4385178,15.215294 C37.471919,14.9671703 37.6836863,14.782 37.9340481,14.782 L37.9340481,14.782 L40.4128458,14.782 L40.8988458,11.344 L37.876135,11.344 L37.8047582,11.3388791 C37.531444,11.2994588 37.3418356,11.0459374 37.3812559,10.7726232 L37.3812559,10.7726232 L37.5070251,9.9006232 C37.5425093,9.65459933 37.7533346,9.472 38.0019043,9.472 L38.0019043,9.472 L41.1508458,9.472 L41.5468458,6.754 L39.2338976,7.00786017 C39.1926321,7.01238931 39.1509631,7.0117617 39.1098528,7.00599182 C38.8363906,6.96761117 38.6458195,6.71481265 38.6842001,6.44135052 L38.6842001,6.44135052 L38.8290058,5.40960996 C38.8606997,5.18379086 39.0411659,5.00802342 39.2677423,4.98229661 L39.2677423,4.98229661 L47.2775881,4.07281212 C47.3194587,4.0680579 47.3617623,4.06861588 47.4034929,4.07447281 Z M7.637573,13.018 C7.84905593,13.018 8.03766706,13.1510534 8.10860521,13.350284 L8.10860521,13.350284 L8.5985446,14.726284 C8.61771455,14.780123 8.6275124,14.83685 8.6275124,14.894 C8.6275124,15.1701424 8.40365477,15.394 8.1275124,15.394 L8.1275124,15.394 L6.1625056,15.394 C5.95225238,15.394 5.76446147,15.2624661 5.69260889,15.0648715 L5.69260889,15.0648715 L5.19224526,13.6888715 C5.17232975,13.6341039 5.16214197,13.5762763 5.16214197,13.518 C5.16214197,13.2418576 5.38599959,13.018 5.66214197,13.018 L5.66214197,13.018 Z M29.9276887,8.284 L31.018346,8.28578793 C31.293501,8.30911978 31.4976439,8.55109112 31.474312,8.82624605 L31.474312,8.82624605 L31.0371074,13.9822461 C31.0151592,14.2410828 30.7986609,14.44 30.5388953,14.44 L30.5388953,14.44 L29.490484,14.44 L29.4482379,14.4382121 C29.173083,14.4148802 28.96894,14.1729089 28.9922719,13.8977539 L28.9922719,13.8977539 L29.4294766,8.74175395 C29.4514247,8.48291724 29.6679231,8.284 29.9276887,8.284 L29.9276887,8.284 Z M19.1530531,8.446 C19.2129521,8.446 19.2723637,8.45676297 19.328456,8.47777587 C19.587049,8.57464818 19.7181496,8.8628098 19.6212773,9.12140285 L19.6212773,9.12140285 L17.8178903,13.9354028 C17.7447528,14.1306377 17.5581505,14.26 17.3496662,14.26 L17.3496662,14.26 L16.3655308,14.26 C16.3056318,14.26 16.2462202,14.249237 16.1901279,14.2282241 C15.9315349,14.1313518 15.8004343,13.8431902 15.8973067,13.5845972 L15.8973067,13.5845972 L17.7006937,8.77059715 C17.7738312,8.57536233 17.9604334,8.446 18.1689178,8.446 L18.1689178,8.446 Z M54.6653472,4 C54.7433446,4 54.8200668,4.01978917 54.8883333,4.05751539 C55.1111794,4.18066719 55.1919976,4.4611539 55.0688458,4.684 L55.0688458,4.684 L63.9990175,4.684 L64.0674465,4.68870466 C64.3409905,4.72649693 64.5321051,4.9788849 64.4943128,5.25242896 L64.4943128,5.25242896 L64.2380179,7.10751647 C64.2116418,7.29842885 64.0778892,7.45718619 63.8942235,7.51558248 L63.8942235,7.51558248 L60.6848458,8.536 L61.4048458,8.788 L63.765765,8.788 L63.8335543,8.7926167 C64.1071469,8.8300557 64.2985873,9.08219665 64.2611483,9.35578929 L64.2611483,9.35578929 L64.1639904,10.0657893 C64.1301031,10.3134275 63.9185532,10.498 63.6686071,10.498 L63.6686071,10.498 L59.2988458,10.498 L57.0308458,9.706 L54.5468458,10.498 L49.9719266,10.498 L49.9041373,10.4933833 C49.6305446,10.4559443 49.4391043,10.2038033 49.4765433,9.93021071 L49.4765433,9.93021071 L49.5737012,9.22021071 C49.6075885,8.9725725 49.8191384,8.788 50.0690845,8.788 L50.0690845,8.788 L52.9088458,8.788 L53.7008458,8.536 L52.4588458,8.104 L50.6214748,8.104 C50.5312601,8.104 50.4427261,8.07959184 50.3652565,8.03336256 C50.1281262,7.89185713 50.0506068,7.58491214 50.1921122,7.34778175 L50.1921122,7.34778175 L52.0443964,4.24378175 C52.1346155,4.09259528 52.2976997,4 52.4737589,4 L52.4737589,4 Z M60.4148458,6.394 L54.5468458,6.394 L57.3368458,7.384 L60.4148458,6.394 Z M4.37780558,4.12638468 L4.46099841,4.13105 C4.73446054,4.16943065 4.92503174,4.42222918 4.88665109,4.69569131 L4.88665109,4.69569131 L4.74575342,5.69958717 C4.71614583,5.91054125 4.55613305,6.07957225 4.34711736,6.12069009 L4.34711736,6.12069009 L0.993590776,6.78040024 C0.938896178,6.79115983 0.882787362,6.79269762 0.827585531,6.78495 C0.554123401,6.74656935 0.363552207,6.49377082 0.401932857,6.22030869 L0.401932857,6.22030869 L0.542830522,5.21641283 C0.572438112,5.00545875 0.732450898,4.83642775 0.941466581,4.79530991 L0.941466581,4.79530991 L4.29499317,4.13559976 C4.34968777,4.12484017 4.40579658,4.12330238 4.46099841,4.13105 Z" id="形状结合" fill="#333333"></path>
                </g>
            </g>
        </g>
    </g>
</svg>