<?xml version="1.0" encoding="UTF-8"?>
<svg width="24px" height="24px" viewBox="0 0 24 24" version="1.1" xmlns="http://www.w3.org/2000/svg" xmlns:xlink="http://www.w3.org/1999/xlink">
    <title>净值查询</title>
    <g id="页面-1" stroke="none" stroke-width="1" fill="none" fill-rule="evenodd">
        <g id="svg" transform="translate(-83.000000, -279.000000)">
            <g id="净值查询" transform="translate(83.000000, 279.000000)">
                <rect id="Rectangle-21" x="0" y="0" width="24" height="24"></rect>
                <path d="M18.9001926,4 L5.09980739,4 C3.94043848,4 3,4.94047637 3,6.09980739 L3,15.7748808 C3,16.9342497 3.94043848,17.8748398 5.09980739,17.8748398 L18.9001926,17.8748398 C20.0595615,17.8748398 21,16.9342497 21,15.7748808 L21,6.09980739 C21,4.94047637 20.0595615,4 18.9001926,4 Z M16.6140405,10.0062266 L14.0454916,12.368311 C13.6519245,12.7298986 13.0470051,12.7298986 12.6534759,12.368311 L10.9756155,10.8241277 L8.78581848,12.8866131 C8.59519214,13.0661755 8.34314553,13.1660545 8.08117165,13.1660545 C7.65994464,13.166206 7.28130638,12.90912 7.12591805,12.5176369 C6.97049184,12.1260023 7.06995401,11.6793129 7.37663849,11.3905506 L10.2649062,8.6714633 C10.657867,8.30218396 11.2692657,8.29877383 11.6663944,8.66377156 L13.3517572,10.2156466 L15.2235025,8.49459115 C15.6410163,8.1096252 16.2912147,8.13758828 16.6762185,8.55513993 C17.0595552,8.97254002 17.033032,9.62288998 16.6140405,10.0062266 Z M16.7521129,18.9100041 L7.2462578,18.9100041 C6.67816779,18.9100041 6.21889886,19.3709023 6.21889886,19.9373252 C6.21889886,20.5054152 6.67979708,20.9648357 7.2462578,20.9648357 L16.7521129,20.9648357 C17.3202029,20.9648357 17.779627,20.5037859 17.779627,19.9373252 C17.7811011,19.369273 17.3202029,18.9100041 16.7521129,18.9100041 Z" id="Fill-3" fill="#ED6755"></path>
            </g>
        </g>
    </g>
</svg>