<?xml version="1.0" encoding="UTF-8"?>
<svg width="24px" height="24px" viewBox="0 0 24 24" version="1.1" xmlns="http://www.w3.org/2000/svg" xmlns:xlink="http://www.w3.org/1999/xlink">
    <title>临时开放日设置</title>
    <g id="页面-1" stroke="none" stroke-width="1" fill="none" fill-rule="evenodd">
        <g id="svg" transform="translate(-272.000000, -279.000000)">
            <g id="临时开放日设置" transform="translate(272.000000, 279.000000)">
                <rect id="Rectangle-21" x="0" y="0" width="24" height="24"></rect>
                <g id="bg-calendar" transform="translate(3.000000, 3.000000)" fill="#ED6755">
                    <path d="M0,16.5524537 C0,16.9365738 0.152654009,17.3049608 0.424331987,17.5765542 C0.695987984,17.8482136 1.06451169,18.0007322 1.44872941,18.0007322 L16.5533216,18.0007322 C16.9375393,18.0007322 17.306063,17.8482136 17.577719,17.5765542 C17.8494629,17.3049608 18.002051,16.9365738 18.002051,16.5524537 L18.002051,6.38872957 L0,6.38872957 L0,16.5524537 Z M12.2157057,9.00255246 L13.5015602,9.00255246 C13.856588,9.00255246 14.1444875,9.29027447 14.1444875,9.64527958 C14.1444875,10.0002188 13.856588,10.2880067 13.5015602,10.2880067 L12.2157057,10.2880067 C11.8605901,10.2880067 11.5727785,10.0002188 11.5727785,9.64527958 C11.5727785,9.29027447 11.8605901,9.00255246 12.2157057,9.00255246 Z M8.35814221,9.00255246 L9.64399671,9.00255246 C9.99902444,9.00255246 10.286924,9.29027447 10.286924,9.64527958 C10.286924,10.0002188 9.99902444,10.2880067 9.64399671,10.2880067 L8.35814221,10.2880067 C8.00302656,10.2880067 7.71521496,10.0002188 7.71521496,9.64527958 C7.71521496,9.29027447 8.00302656,9.00255246 8.35814221,9.00255246 Z M8.35814221,12.9017417 L9.64399671,12.9017417 C9.99902444,12.9017417 10.286924,13.1895516 10.286924,13.5444688 C10.286924,13.8994959 9.99902444,14.1871959 9.64399671,14.1871959 L8.35814221,14.1871959 C8.00302656,14.1871959 7.71521496,13.8994959 7.71521496,13.5444688 C7.71521496,13.1895516 8.00302656,12.9017417 8.35814221,12.9017417 Z M4.50049077,9.00255246 L5.78634528,9.00255246 C6.14146092,9.00255246 6.42927253,9.29027447 6.42927253,9.64527958 C6.42927253,10.0002188 6.14146092,10.2880067 5.78634528,10.2880067 L4.50049077,10.2880067 C4.14546304,10.2880067 3.85756352,10.0002188 3.85756352,9.64527958 C3.85756352,9.29027447 4.14546304,9.00255246 4.50049077,9.00255246 Z M4.50049077,12.9017417 L5.78634528,12.9017417 C6.14146092,12.9017417 6.42927253,13.1895516 6.42927253,13.5444688 C6.42927253,13.8994959 6.14146092,14.1871959 5.78634528,14.1871959 L4.50049077,14.1871959 C4.14546304,14.1871959 3.85756352,13.8994959 3.85756352,13.5444688 C3.85756352,13.1895516 4.14546304,12.9017417 4.50049077,12.9017417 Z M18.002051,2.73801754 C18.002051,2.35391942 17.8494629,1.98551043 17.577719,1.71393899 C17.306063,1.44236756 16.9375393,1.28973909 16.5533216,1.28973909 L14.1444875,1.28973909 L14.1444875,0.724183172 C14.1444875,0.324198153 13.8201884,0 13.4200788,0 C13.0200572,0 12.6957581,0.324198153 12.6957581,0.724183172 L12.6957581,1.28973909 L5.30629293,1.28973909 L5.30629293,0.724183172 C5.30629293,0.324198153 4.98199383,0 4.58197218,0 C4.18186262,0 3.85756352,0.324198153 3.85756352,0.724183172 L3.85756352,1.28973909 L1.44872941,1.28973909 C1.06451169,1.28973909 0.695987984,1.44236756 0.424331987,1.71393899 C0.152654009,1.98551043 0,2.35391942 0,2.73801754 L0,4.99186929 L18.002051,4.99186929 L18.002051,2.73801754 Z" id="Fill-1"></path>
                </g>
            </g>
        </g>
    </g>
</svg>