<?xml version="1.0" encoding="UTF-8"?>
<svg width="24px" height="24px" viewBox="0 0 24 24" version="1.1" xmlns="http://www.w3.org/2000/svg" xmlns:xlink="http://www.w3.org/1999/xlink">
    <title>扣费规则</title>
    <g id="页面-1" stroke="none" stroke-width="1" fill="none" fill-rule="evenodd">
        <g id="svg" transform="translate(-209.000000, -225.000000)">
            <g id="扣费规则" transform="translate(209.000000, 225.000000)">
                <rect id="Rectangle-21" x="0" y="0" width="24" height="24"></rect>
                <g id="icon_2-07" transform="translate(4.000000, 3.000000)" fill="#4966F5">
                    <path d="M3.7058949,1.0589102 C3.70500307,1.62083948 3.92854173,2.15973633 4.32691748,2.55597945 C4.7228504,2.9543552 5.26174725,3.17789386 5.82352143,3.17653673 L10.0588133,3.17653673 C11.2282714,3.17653673 12.1764398,2.22836832 12.1764398,1.0589102 L15.3528214,1.0589102 C15.4932262,1.0589102 15.6278922,1.11463007 15.7272341,1.21401075 C15.8264597,1.31319755 15.8821796,1.4478636 15.8821796,1.58826837 L15.8821796,17.4706418 C15.8821796,17.7629676 15.6453023,18 15.3528214,18 L0.529358164,18 C0.23703241,18 0,17.7629676 0,17.4706418 L0,1.58826837 C0,1.29594261 0.23703241,1.0589102 0.529358164,1.0589102 L3.7058949,1.0589102 Z M13.8214286,14.9142857 L2.89285714,14.9142857 C2.71533704,14.9142857 2.57142857,15.0581942 2.57142857,15.2357143 C2.57142857,15.4132344 2.71533704,15.5571429 2.89285714,15.5571429 L2.89285714,15.5571429 L13.8214286,15.5571429 C13.9989487,15.5571429 14.1428571,15.4132344 14.1428571,15.2357143 C14.1428571,15.0581942 13.9989487,14.9142857 13.8214286,14.9142857 L13.8214286,14.9142857 Z M13.8214286,12.0857143 L2.89285714,12.0857143 C2.71533704,12.0857143 2.57142857,12.2296228 2.57142857,12.4071429 C2.57142857,12.584663 2.71533704,12.7285714 2.89285714,12.7285714 L2.89285714,12.7285714 L13.8214286,12.7285714 C13.9989487,12.7285714 14.1428571,12.584663 14.1428571,12.4071429 C14.1428571,12.2296228 13.9989487,12.0857143 13.8214286,12.0857143 L13.8214286,12.0857143 Z M3.28340779,5.77104788 C3.14333202,5.82885797 3.05154119,5.96481386 3.05038763,6.11635937 C3.05038763,6.21536822 3.09043282,6.31075157 3.16096509,6.38042691 L4.13081675,7.34484034 L3.22404862,7.34484034 C3.02682194,7.35670558 2.87296931,7.52008337 2.87296931,7.71757372 C2.87296931,7.91519591 3.02682194,8.0785737 3.22404862,8.09040598 L4.72381516,8.09040598 L4.72381516,8.83649897 L3.22263139,8.83649897 C3.01640689,8.83649897 2.84913995,9.00373295 2.84913995,9.2099904 C2.84913995,9.41637969 3.01640689,9.58361368 3.22263139,9.58361368 L4.72345261,9.58361368 L4.72345261,10.4529074 C4.72345261,10.6601866 4.89144466,10.8282116 5.09872384,10.8282116 C5.30600302,10.8282116 5.47402802,10.6601866 5.47402802,10.4529074 L5.47402802,9.58361368 L6.97339906,9.58361368 C7.17965651,9.58361368 7.34689049,9.41637969 7.34689049,9.2099904 C7.34689049,9.00373295 7.17965651,8.83649897 6.97339906,8.83649897 L5.47402802,8.83649897 L5.47402802,8.08951609 L6.9739264,8.08951609 C7.11387033,8.10045848 7.24801348,8.03196967 7.32141318,7.9122296 C7.39464809,7.79248954 7.39464809,7.64186689 7.32141318,7.52212683 C7.24801348,7.40238676 7.11387033,7.33389795 6.9739264,7.34484034 L6.00367923,7.34484034 L6.97122376,6.37950406 C7.04188787,6.30972985 7.08180122,6.2145772 7.08180122,6.1152058 C7.08180122,6.01580144 7.04188787,5.92051696 6.97122376,5.85074275 C6.82445731,5.7065471 6.5892289,5.7065471 6.44246245,5.85074275 L5.06681952,7.2209804 L3.69206649,5.8516656 C3.58442238,5.74504322 3.42335172,5.71336962 3.28340779,5.77104788 Z M13.8214286,9.25714286 L9.32142857,9.25714286 C9.14390847,9.25714286 9,9.40105133 9,9.57857143 C9,9.75609153 9.14390847,9.9 9.32142857,9.9 L9.32142857,9.9 L13.8214286,9.9 C13.9989487,9.9 14.1428571,9.75609153 14.1428571,9.57857143 C14.1428571,9.40105133 13.9989487,9.25714286 13.8214286,9.25714286 L13.8214286,9.25714286 Z M13.8214286,6.42857143 L9.32142857,6.42857143 C9.14390847,6.42857143 9,6.5724799 9,6.75 C9,6.9275201 9.14390847,7.07142857 9.32142857,7.07142857 L9.32142857,7.07142857 L13.8214286,7.07142857 C13.9989487,7.07142857 14.1428571,6.9275201 14.1428571,6.75 C14.1428571,6.5724799 13.9989487,6.42857143 13.8214286,6.42857143 L13.8214286,6.42857143 Z M10.0588133,0 C10.6434648,0 11.1175684,0.474103594 11.1175684,1.0589102 C11.1175684,1.64371681 10.6434648,2.11762653 10.0588133,2.11762653 L5.82352143,2.11762653 C5.23871482,2.11762653 4.76465,1.64371681 4.76465,1.0589102 C4.76465,0.474103594 5.23871482,0 5.82352143,0 L10.0588133,0 Z" id="Fill-3"></path>
                </g>
            </g>
        </g>
    </g>
</svg>