<?xml version="1.0" encoding="UTF-8"?>
<svg width="24px" height="24px" viewBox="0 0 24 24" version="1.1" xmlns="http://www.w3.org/2000/svg" xmlns:xlink="http://www.w3.org/1999/xlink">
    <title>税费查询</title>
    <g id="页面-1" stroke="none" stroke-width="1" fill="none" fill-rule="evenodd">
        <g id="svg" transform="translate(-83.000000, -75.000000)">
            <g id="税费查询" transform="translate(83.000000, 75.000000)">
                <rect id="Rectangle-21" x="0" y="0" width="24" height="24"></rect>
                <path d="M20,3 C20.5522847,3 21,3.44771525 21,4 L21,20 C21,20.5522847 20.5522847,21 20,21 L4,21 C3.44771525,21 3,20.5522847 3,20 L3,4 C3,3.44771525 3.44771525,3 4,3 L20,3 Z M14.3478261,13.5652174 C13.5457232,13.5652174 12.8563542,14.0478885 12.5543252,14.7386244 L12.5543252,14.7386244 L6.91304348,14.7391304 C6.48082063,14.7391304 6.13043478,15.0895163 6.13043478,15.5217391 C6.13043478,15.953962 6.48082063,16.3043478 6.91304348,16.3043478 L6.91304348,16.3043478 L12.5543252,16.3048539 C12.8563542,16.9955898 13.5457232,17.4782609 14.3478261,17.4782609 C15.149929,17.4782609 15.839298,16.9955898 16.1413269,16.3048539 L16.1413269,16.3048539 L17.0869565,16.3043478 C17.5191794,16.3043478 17.8695652,15.953962 17.8695652,15.5217391 C17.8695652,15.0895163 17.5191794,14.7391304 17.0869565,14.7391304 L17.0869565,14.7391304 L16.1413269,14.7386244 C15.839298,14.0478885 15.149929,13.5652174 14.3478261,13.5652174 Z M9.65217391,6.52173913 C8.85019793,6.52173913 8.16092014,7.00425748 7.85881645,7.69481829 L7.85881645,7.69481829 L6.91304348,7.69565217 C6.48082063,7.69565217 6.13043478,8.04603802 6.13043478,8.47826087 C6.13043478,8.91048372 6.48082063,9.26086957 6.91304348,9.26086957 L6.91304348,9.26086957 L7.85881645,9.26170344 C8.16092014,9.95226426 8.85019793,10.4347826 9.65217391,10.4347826 C10.4541499,10.4347826 11.1434277,9.95226426 11.4455314,9.26170344 L11.4455314,9.26170344 L17.0869565,9.26086957 C17.5191794,9.26086957 17.8695652,8.91048372 17.8695652,8.47826087 C17.8695652,8.04603802 17.5191794,7.69565217 17.0869565,7.69565217 L17.0869565,7.69565217 L11.4455314,7.69481829 C11.1434277,7.00425748 10.4541499,6.52173913 9.65217391,6.52173913 Z" id="矩形-2" fill="#4966F5" fill-rule="nonzero"></path>
            </g>
        </g>
    </g>
</svg>