<?xml version="1.0" encoding="UTF-8"?>
<svg width="24px" height="24px" viewBox="0 0 24 24" version="1.1" xmlns="http://www.w3.org/2000/svg" xmlns:xlink="http://www.w3.org/1999/xlink">
    <title>客服</title>
    <g id="页面-1" stroke="none" stroke-width="1" fill="none" fill-rule="evenodd">
        <g id="svg" transform="translate(-279.000000, -21.000000)">
            <g id="客服" transform="translate(279.000000, 21.000000)">
                <rect id="Rectangle-169" x="0" y="0" width="24" height="24"></rect>
                <path d="M23.25,11.98125 C23.25,10.021875 21.946875,8.4 20.278125,8.23125 C19.003125,4.29375 15.76875,1.5 12,1.5 C8.23125,1.5 4.996875,4.29375 3.7125,8.23125 C2.0625,8.41875 0.778125,10.03125 0.778125,11.98125 C0.778125,13.93125 2.25,15.75 4.05,15.75 C4.45026136,15.7507386 4.84624784,15.6677091 5.2125,15.50625 C5.1,15.1875 5.00625,14.859375 4.921875,14.521875 L4.884375,14.353125 L4.8375,14.146875 C4.5585993,12.7582156 4.55223125,11.3285889 4.81875,9.9375 L4.81875,9.9375 C4.86875,9.6875 4.925,9.440625 4.9875,9.196875 L4.9875,9.16875 L5.090625,8.821875 L5.090625,8.8125 L5.203125,8.465625 C6.346875,5.25 8.9625,3 12,3 C15.0375,3 17.6625,5.259375 18.7875,8.475 L18.7875,8.475 L18.9,8.8125 L18.9,8.840625 L18.99375,9.178125 L18.99375,9.215625 L19.078125,9.5625 L19.078125,9.590625 C19.103125,9.709375 19.128125,9.83125 19.153125,9.95625 C19.4123353,11.3291029 19.4059705,12.7389185 19.134375,14.109375 L19.078125,14.371875 L19.05,14.503125 L18.99375,14.746875 L18.95625,14.8875 L18.890625,15.1125 L18.84375,15.2625 L18.778125,15.46875 C17.94375,17.896875 16.25625,19.790625 14.184375,20.5875 C13.9900342,19.5311442 13.0761471,18.7594477 12.002163,18.7448157 C10.928179,18.7301836 9.99360768,19.4766966 9.77056058,20.5273659 C9.54751348,21.5780351 10.0981933,22.6398528 11.0854934,23.0628118 C12.0727936,23.4857708 13.2213784,23.1519175 13.828125,22.265625 C16.790625,21.515625 19.2,19.021875 20.26875,15.73125 C21.946875,15.553125 23.25,13.940625 23.25,11.98125 Z M2.278125,11.98125 C2.278125,11.071875 2.690625,10.29375 3.3,9.928125 C3.06909836,11.2868769 3.06593008,12.6745829 3.290625,14.034375 C2.690625,13.66875 2.278125,12.88125 2.278125,11.98125 L2.278125,11.98125 Z M12,21.75 C11.5857864,21.75 11.25,21.4142136 11.25,21 C11.25,20.5857864 11.5857864,20.25 12,20.25 C12.4142136,20.25 12.75,20.5857864 12.75,21 C12.75,21.4142136 12.4142136,21.75 12,21.75 Z M20.7,14.053125 C20.9297962,12.6811656 20.9266268,11.2802805 20.690625,9.909375 C21.309375,10.265625 21.740625,11.0625 21.740625,11.98125 C21.740625,12.9 21.31875,13.696875 20.7,14.053125 Z" id="icon-color" fill="#ffffff"></path>
            </g>
        </g>
    </g>
</svg>