<?xml version="1.0" encoding="UTF-8"?>
<svg width="24px" height="24px" viewBox="0 0 24 24" version="1.1" xmlns="http://www.w3.org/2000/svg" xmlns:xlink="http://www.w3.org/1999/xlink">
    <title>指令签发</title>
    <g id="页面-1" stroke="none" stroke-width="1" fill="none" fill-rule="evenodd">
        <g id="svg" transform="translate(-209.000000, -75.000000)">
            <g id="指令签发" transform="translate(209.000000, 75.000000)">
                <rect id="Rectangle-21备份" x="0" y="0" width="24" height="24"></rect>
                <path d="M18.1560625,13.7538178 L18.1560625,13.7550151 L19.6238125,15.234823 L20.2579375,15.8729603 L15.689625,20.48 L13.58775,20.48 L13.58775,18.3608575 L18.1560625,13.7538178 Z M18.406625,3.11260975 C18.6638248,2.96288915 18.9806072,2.96243625 19.2382272,3.11142082 C19.4958471,3.2604054 19.6553942,3.53632513 19.6570625,3.83575215 L19.6570625,3.83575215 L19.6570625,10.4589703 L18.990875,11.131828 L18.1560625,11.9723014 L17.26425,12.8630596 L12.6959375,17.4689021 L12.329,17.8388541 L12.329,20.1256123 L12.1710625,20.217801 C11.6556875,20.5171149 11.0191875,20.5171149 10.5038125,20.217801 L10.5038125,20.217801 L3.833625,16.2919998 C3.31825,15.9926859 3,15.4383565 3,14.8385314 L3,14.8385314 L3,3.83575215 C3.0048936,3.54144105 3.1621434,3.27115806 3.41454707,3.12322326 C3.66695074,2.97528847 3.97772202,2.97126245 4.23381249,3.11260975 L4.23381249,3.11260975 L11.3208125,7.31497703 Z M5.4569375,12.2823907 C5.33575108,12.2261415 5.19450597,12.2359172 5.08208016,12.3083349 C4.96965435,12.3807525 4.90149454,12.5058624 4.9011875,12.6403701 C4.90124565,13.0175325 5.11663211,13.3609744 5.45456249,13.5227475 L5.45456249,13.5227475 L8.84725,15.1450289 C8.97292759,15.2050355 9.11987162,15.1986948 9.24000443,15.1280815 C9.36013724,15.0574682 9.43800289,14.9316672 9.44812501,14.7918385 C9.47557687,14.4200578 9.27171141,14.0700195 8.93631249,13.9130528 L8.93631249,13.9130528 Z M19.89775,11.9977666 L22,14.115389 L20.9490625,15.1833411 L19.6736875,13.8974885 L18.848375,13.0558178 L19.6736875,12.2237251 L19.89775,11.9977666 Z M5.4569375,8.69062376 C5.33575108,8.63437459 5.19450597,8.64415029 5.08208017,8.71656797 C4.96965436,8.78898565 4.90149455,8.91409551 4.9011875,9.04860318 C4.90124565,9.42576562 5.1166321,9.7692075 5.45456249,9.9309806 L5.45456249,9.9309806 L8.84725,11.553262 C8.97292759,11.6132685 9.11987161,11.6069279 9.24000442,11.5363146 C9.36013724,11.4657013 9.43800288,11.3399003 9.44812501,11.2000716 C9.47557687,10.828291 9.27171142,10.4782526 8.93631249,10.3212859 L8.93631249,10.3212859 Z" id="形状结合" fill="#ED6755" fill-rule="nonzero"></path>
            </g>
        </g>
    </g>
</svg>