<?xml version="1.0" encoding="UTF-8"?>
<svg width="24px" height="24px" viewBox="0 0 24 24" version="1.1" xmlns="http://www.w3.org/2000/svg" xmlns:xlink="http://www.w3.org/1999/xlink">
    <title>待办指令</title>
    <g id="页面-1" stroke="none" stroke-width="1" fill="none" fill-rule="evenodd">
        <g id="svg" transform="translate(-335.000000, -75.000000)">
            <g id="待办指令" transform="translate(335.000000, 75.000000)">
                <rect id="Rectangle-21" x="0" y="0" width="24" height="24"></rect>
                <path d="M17.3227143,10.8483851 C19.9174098,10.88811 22,13.0028278 22,15.5978261 C22,18.1928244 19.9174098,20.3075422 17.3227143,20.3472671 C15.6085722,20.3735107 14.0132888,19.4740559 13.1485524,17.9937855 C12.2838159,16.5135151 12.2838159,14.6821371 13.1485524,13.2018667 C14.0132888,11.7215963 15.6085722,10.8221415 17.3227143,10.8483851 Z M16.3738844,3 C18.1119495,3 19.5217385,4.39884753 19.5217385,6.12616937 L19.5217385,10.5583073 L19.5206142,10.5583073 C17.5548266,9.63181705 15.2339263,9.93990906 13.5734184,11.3477784 C11.9259436,12.741245 11.2605444,14.9893984 11.8814469,17.0643642 L6.93257051,17.0643642 L3.59472092,19.0533328 C3.47295808,19.1254981 3.32234978,19.1272224 3.19899069,19.0578635 C3.07643835,18.9893012 3.00030474,18.8592928 3.00000067,18.7180624 L3.00000067,6.1250367 C2.99887711,4.39884753 4.40754182,3 6.14673122,3 L16.3738844,3 Z M17.3227143,12.9590004 C17.0312989,12.9590004 16.7950602,13.195239 16.7950602,13.4866542 L16.7950602,15.5983827 C16.7950602,15.7920784 16.8997004,15.9612838 17.0544344,16.0525657 C17.0823916,16.0780226 17.1129932,16.100414 17.1457164,16.1193573 L18.9746946,17.174665 C19.2270701,17.3203726 19.5497802,17.2339012 19.6954879,16.9815259 C19.8411955,16.7291505 19.7547241,16.4064405 19.5023487,16.2607329 L17.8503683,15.3067259 L17.8503683,13.4866542 C17.8503683,13.195239 17.6141296,12.9590004 17.3227143,12.9590004 Z M9.92752884,9.44375998 L6.19619749,9.44375998 C5.90189228,9.44375998 5.66331076,9.68413186 5.66331076,9.98064559 C5.66331076,10.2771593 5.90189228,10.5175312 6.19619749,10.5175312 L9.92752884,10.5175312 C10.2218341,10.5175312 10.4604156,10.2771593 10.4604156,9.98064559 C10.4604156,9.68413186 10.2218341,9.44375998 9.92752884,9.44375998 Z M16.3232938,6.22131366 L6.19619749,6.22131366 C5.90158183,6.22131366 5.66274865,6.46193909 5.66274865,6.7587656 C5.66274865,7.05559211 5.90158183,7.29621754 6.19619749,7.29621754 L16.3232938,7.29621754 C16.6179095,7.29621754 16.8567427,7.05559211 16.8567427,6.7587656 C16.8567427,6.46193909 16.6179095,6.22131366 16.3232938,6.22131366 Z" id="形状结合" fill="#4966F5"></path>
            </g>
        </g>
    </g>
</svg>