<?xml version="1.0" encoding="UTF-8"?>
<svg width="24px" height="24px" viewBox="0 0 24 24" version="1.1" xmlns="http://www.w3.org/2000/svg" xmlns:xlink="http://www.w3.org/1999/xlink">
    <title>联系人</title>
    <g id="页面-1" stroke="none" stroke-width="1" fill="none" fill-rule="evenodd">
        <g id="svg" transform="translate(-398.000000, -125.000000)">
            <g id="联系人" transform="translate(398.000000, 125.000000)">
                <rect id="Rectangle-21" x="0" y="0" width="24" height="24"></rect>
                <path d="M15.400943,12.300831 C17.8864713,12.300831 19.9013338,14.3157169 19.9013338,16.8012217 L19.9013338,18.6014015 C19.9013338,19.9269072 18.8267952,21.001563 17.5011722,21.001563 L6.40016152,21.001563 C5.07465581,21.001563 4,19.9269072 4,18.6014015 L4,16.8012217 C4,14.3157169 6.01488588,12.300831 8.50039075,12.300831 L15.400943,12.300831 Z M8.50039075,13.5009118 C6.71394658,13.5009118 5.25905463,14.9202928 5.20181529,16.6928139 L5.20054955,16.7466545 L5.20008076,16.8012217 L5.20008076,18.6014015 L5.20026828,18.6209969 C5.21053479,19.2616463 5.72289959,19.7803163 6.36099406,19.8008259 L6.38040199,19.8012947 L6.40016152,19.8014822 L17.5011722,19.8014822 L17.5208615,19.8012947 C18.1615108,19.7910282 18.6802981,19.2776555 18.7008077,18.6394907 L18.701253,18.6200593 L18.701253,16.8012217 L18.7008077,16.7471936 C18.6726099,14.9853844 17.2637532,13.5589715 15.5088118,13.5026463 L15.4555337,13.5013805 L8.50039075,13.5009118 Z M15.400943,3 C15.7324015,3 16.001042,3.26864051 16.001042,3.60009898 L16.001042,7.05037511 C16.001042,9.28728027 14.1876892,11.1007502 11.9506669,11.1007502 L11.6506174,11.1007502 C9.41371224,11.1007502 7.60035948,9.28728027 7.60035948,7.05037511 C7.60035948,4.81335276 9.41371224,3 11.6506174,3 L15.400943,3 Z M14.8009612,4.20008076 L11.6506174,4.20008076 C10.076512,4.20008076 8.80044024,5.47617593 8.80044024,7.05037511 C8.80044024,8.60872917 10.0511504,9.87502662 11.6035742,9.90020068 L11.6506174,9.90055227 L11.9506669,9.90055227 C13.5091381,9.90055227 14.7754121,8.64993587 14.8005862,7.09751202 L14.8009612,7.05037511 L14.8009612,4.20008076 Z M19.0013025,10.2006018 L20.2013833,10.2006018 C20.5328417,10.2006018 20.8014822,10.4692423 20.8014822,10.8007007 C20.8014822,11.1320654 20.5328417,11.4006825 20.2013833,11.4006825 L19.0013025,11.4006825 C18.6699378,11.4006825 18.4012035,11.1320654 18.4012035,10.8007007 C18.4012035,10.4692423 18.6699378,10.2006018 19.0013025,10.2006018 Z M17.8012217,7.20034126 L20.2013833,7.20034126 C20.5328417,7.20034126 20.8014822,7.46898177 20.8014822,7.80044024 C20.8014822,8.13180495 20.5328417,8.40042202 20.2013833,8.40042202 L17.8012217,8.40042202 C17.4697633,8.40042202 17.2011228,8.13180495 17.2011228,7.80044024 C17.2011228,7.46898177 17.4697633,7.20034126 17.8012217,7.20034126 Z" id="Fill-1" fill="#4966F5"></path>
            </g>
        </g>
    </g>
</svg>