<?xml version="1.0" encoding="UTF-8"?>
<svg width="24px" height="24px" viewBox="0 0 24 24" version="1.1" xmlns="http://www.w3.org/2000/svg" xmlns:xlink="http://www.w3.org/1999/xlink">
    <title>产品信息-active</title>
    <g id="页面-1" stroke="none" stroke-width="1" fill="none" fill-rule="evenodd">
        <g id="svg" transform="translate(-83.000000, -138.000000)">
            <g id="产品信息-active" transform="translate(83.000000, 138.000000)">
                <rect id="Rectangle-21" x="0" y="0" width="24" height="24"></rect>
                <path d="M9,12.5 C10.1045695,12.5 11,13.3954305 11,14.5 L11,19.5 C11,20.6045695 10.1045695,21.5 9,21.5 L4,21.5 C2.8954305,21.5 2,20.6045695 2,19.5 L2,14.5 C2,13.3954305 2.8954305,12.5 4,12.5 L9,12.5 Z M9,2 C10.1045695,2 11,2.8954305 11,4 L11,9 C11,10.1045695 10.1045695,11 9,11 L4,11 C2.8954305,11 2,10.1045695 2,9 L2,4 C2,2.8954305 2.8954305,2 4,2 L9,2 Z M19.5,2 C20.6045695,2 21.5,2.8954305 21.5,4 L21.5,9 C21.5,10.1045695 20.6045695,11 19.5,11 L14.5,11 C13.3954305,11 12.5,10.1045695 12.5,9 L12.5,4 C12.5,2.8954305 13.3954305,2 14.5,2 L19.5,2 Z" id="形状结合备份-6" fill="#4966F5"></path>
                <g id="编组-39" transform="translate(12.500000, 12.500000)" fill="#FF801A">
                    <path d="M7.44685474,7.72894004 L9.24417988,7.72331258 C9.38225039,7.72288027 9.4945291,7.83445809 9.4949614,7.9725286 C9.49496304,7.97305043 9.49496304,7.97357227 9.4949614,7.9740941 L9.49260558,8.72650687 C9.49217519,8.86396642 9.3808491,8.97529251 9.24338956,8.9757229 L7.44606442,8.98135036 C7.30799391,8.98178266 7.1957152,8.87020484 7.1952829,8.73213433 C7.19528126,8.7316125 7.19528126,8.73109066 7.1952829,8.73056883 L7.19763872,7.97815606 C7.1980691,7.84069652 7.3093952,7.72937043 7.44685474,7.72894004 Z" id="矩形" transform="translate(8.345122, 8.352331) rotate(-315.000000) translate(-8.345122, -8.352331) "></path>
                    <path d="M4.5,0 C6.98528137,0 9,2.01471863 9,4.5 C9,6.98528137 6.98528137,9 4.5,9 C2.01471863,9 0,6.98528137 0,4.5 C0,2.01471863 2.01471863,0 4.5,0 Z M4.5,1.25 C2.70507456,1.25 1.25,2.70507456 1.25,4.5 C1.25,6.29492544 2.70507456,7.75 4.5,7.75 C6.29492544,7.75 7.75,6.29492544 7.75,4.5 C7.75,2.70507456 6.29492544,1.25 4.5,1.25 Z" id="形状结合"></path>
                </g>
            </g>
        </g>
    </g>
</svg>