<?xml version="1.0" encoding="UTF-8"?>
<svg width="24px" height="24px" viewBox="0 0 24 24" version="1.1" xmlns="http://www.w3.org/2000/svg" xmlns:xlink="http://www.w3.org/1999/xlink">
    <title>待办-link</title>
    <g id="页面-1" stroke="none" stroke-width="1" fill="none" fill-rule="evenodd">
        <g id="svg" transform="translate(-146.000000, -172.000000)">
            <g id="待办-link" transform="translate(146.000000, 172.000000)">
                <rect id="Rectangle-21" x="0" y="0" width="24" height="24"></rect>
                <path d="M18.585331,2 C19.1028134,2 19.5990877,2.20553525 19.9650839,2.57153147 C20.3309658,2.93741336 20.5366153,3.43368766 20.5366153,3.95117002 L20.5366153,12.5462933 C19.3570528,11.4113763 17.7832262,10.7783358 16.146347,10.7804509 C12.6439018,10.7804509 9.80485156,13.6194725 9.80485156,17.1219178 C9.80485156,18.8257938 10.477107,20.3731532 11.5707226,21.5122146 L3.9511986,21.5122146 C3.43368766,21.5122146 2.93741336,21.3065365 2.57153147,20.9406832 C2.20553525,20.5748013 2,20.0784127 2,19.5609017 L2,3.95117002 C2,3.43368766 2.20553525,2.93741336 2.57153147,2.57153147 C2.93741336,2.20553525 3.43368766,2 3.9511986,2 L18.585331,2 Z M5.625,6 L15.375,6 C15.720178,6 16,6.27982203 16,6.625 C16,6.97017797 15.720178,7.25 15.375,7.25 L5.625,7.25 C5.27982203,7.25 5,6.97017797 5,6.625 C5,6.27982203 5.27982203,6 5.625,6 Z M5.625,10.5 L11.375,10.5 C11.720178,10.5 12,10.779822 12,11.125 C12,11.470178 11.720178,11.75 11.375,11.75 L5.625,11.75 C5.27982203,11.75 5,11.470178 5,11.125 C5,10.779822 5.27982203,10.5 5.625,10.5 Z" id="daiban_fill" fill="#DBDBDB"></path>
                <path d="M16.146347,12.2438355 C18.8404279,12.2438355 21.0244293,14.4278083 21.0244293,17.1219178 C21.0244293,19.8160272 18.8404279,22 16.146347,22 C13.4522376,22 11.2682648,19.8160272 11.2682648,17.1219178 C11.2682648,14.4278083 13.4522376,12.2438355 16.146347,12.2438355 Z M15.9764035,13.6010181 C15.6670756,13.6010181 15.4542269,13.7496649 15.4180417,14.1249218 L15.4145833,14.1951484 L15.4145833,17.4248329 L17.5804634,19.590713 L17.6356273,19.6409607 C17.9045866,19.8600154 18.3472424,19.6688422 18.4486693,19.541041 C18.5500961,19.4132398 18.6676382,19.0891941 18.4486693,18.8202348 L18.3984502,18.7646136 L16.5120695,17.0347721 L16.5155279,14.1951484 L16.5120695,14.1249218 C16.4758843,13.7496649 16.2857313,13.6010181 15.9764035,13.6010181 Z" id="路径-2" fill="#F0F1F2"></path>
            </g>
        </g>
    </g>
</svg>