<?xml version="1.0" encoding="UTF-8"?>
<svg width="24px" height="24px" viewBox="0 0 24 24" version="1.1" xmlns="http://www.w3.org/2000/svg" xmlns:xlink="http://www.w3.org/1999/xlink">
    <title>微信</title>
    <g id="页面-1" stroke="none" stroke-width="1" fill="none" fill-rule="evenodd">
        <g id="svg" transform="translate(-344.000000, -21.000000)">
            <g id="微信" transform="translate(344.000000, 21.000000)">
                <rect id="Rectangle-21" x="0" y="0" width="24" height="24"></rect>
                <path d="M15.184984,9.38977988 C15.3920603,9.38977988 15.596345,9.40492739 15.7985875,9.42692489 C15.2475645,6.88736444 12.5032541,5 9.37097617,5 C5.86882496,5 3,7.36223634 3,10.361547 C3,12.0926026 3.95470681,13.5142974 5.54935722,14.6170414 L4.91223117,16.5138924 L7.13917387,15.4085635 C7.93656369,15.5643554 8.57560257,15.7251103 9.37097617,15.7251103 C9.57078891,15.7251103 9.76861128,15.7154169 9.96560647,15.6997524 C9.84098847,15.2785947 9.76861128,14.8369388 9.76861128,14.3791272 C9.76868882,11.6250201 12.1587128,9.38977988 15.184984,9.38977988 Z M11.7600955,7.68030823 C12.2398011,7.68030823 12.557356,7.99302939 12.557356,8.46738431 C12.557356,8.93985226 12.2398011,9.25639906 11.7600955,9.25639906 C11.2822768,9.25639906 10.8034758,8.93985226 10.8034758,8.46738431 C10.8034758,7.99302939 11.2822768,7.68030823 11.7600955,7.68030823 Z M7.30142801,9.25639906 C6.82353178,9.25639906 6.34178404,8.93985226 6.34178404,8.46738431 C6.34178404,7.99292599 6.82353178,7.68030823 7.30142801,7.68030823 C7.77872972,7.68030823 8.09680162,7.99292599 8.09680162,8.46738431 C8.09680162,8.93985226 7.77872972,9.25639906 7.30142801,9.25639906 Z M21,14.3034155 C21,11.7828282 18.4510305,9.72835003 15.5885644,9.72835003 C12.557356,9.72835003 10.1702788,11.7828282 10.1702788,14.3034155 C10.1702788,16.8276217 12.557356,18.8776797 15.5885644,18.8776797 C16.2226661,18.8776797 16.862739,18.7202593 17.4997616,18.5620376 L19.2475156,19.5088605 L18.7681977,17.9336743 C20.0473094,16.9839305 21,15.7251103 21,14.3034155 Z M13.831634,13.5142974 C13.5145961,13.5142974 13.194508,13.2020932 13.194508,12.8835302 C13.194508,12.5694132 13.5145961,12.2533575 13.831634,12.2533575 C14.3133817,12.2533575 14.6289204,12.5694132 14.6289204,12.8835302 C14.6289204,13.2020932 14.3133817,13.5142974 13.831634,13.5142974 Z M17.335698,13.5142974 C17.0210641,13.5142974 16.7029922,13.2020932 16.7029922,12.8835302 C16.7029922,12.5694132 17.0210641,12.2533575 17.335698,12.2533575 C17.8134909,12.2533575 18.1329845,12.5694132 18.1329845,12.8835302 C18.1329845,13.2020932 17.8134909,13.5142974 17.335698,13.5142974 Z" id="weixin" fill="#333333"></path>
            </g>
        </g>
    </g>
</svg>