<?xml version="1.0" encoding="UTF-8"?>
<svg width="24px" height="24px" viewBox="0 0 24 24" version="1.1" xmlns="http://www.w3.org/2000/svg" xmlns:xlink="http://www.w3.org/1999/xlink">
    <title>清除</title>
    <g id="页面-1" stroke="none" stroke-width="1" fill="none" fill-rule="evenodd">
        <g id="svg" transform="translate(-20.000000, -21.000000)">
            <g id="清除" transform="translate(20.000000, 21.000000)">
                <rect id="矩形" x="0" y="0" width="24" height="24"></rect>
                <path d="M12,22.5 C6.20625,22.5 1.5,17.79375 1.5,12 C1.5,6.20625 6.20625,1.5 12,1.5 C17.79375,1.5 22.5,6.20625 22.5,12 C22.5,17.79375 17.79375,22.5 12,22.5 Z M15.975,14.915625 L13.059375,12 L15.975,9.084375 C16.125,8.934375 16.125,8.7 15.975,8.55 L15.440625,8.015625 C15.290625,7.865625 15.05625,7.865625 14.90625,8.015625 L12,10.940625 L9.084375,8.025 C8.934375,7.875 8.7,7.875 8.55,8.025 L8.015625,8.559375 C7.865625,8.709375 7.865625,8.94375 8.015625,9.09375 L10.93125,12.009375 L8.015625,14.925 C7.865625,15.075 7.865625,15.309375 8.015625,15.459375 L8.55,15.99375 C8.7,16.14375 8.934375,16.14375 9.084375,15.99375 L12,13.078125 L14.915625,15.99375 C15.065625,16.14375 15.3,16.14375 15.45,15.99375 L15.984375,15.459375 C16.125,15.3 16.125,15.065625 15.975,14.915625 Z" id="icon-color" fill="#333333"></path>
            </g>
        </g>
    </g>
</svg>